<svg xmlns="http://www.w3.org/2000/svg" width="250" height="167" fill="none" xmlns:v="https://vecta.io/nano"><style><![CDATA[.B{fill:#e4ad23}.C{stroke:#7e2418}.D{fill:#e41e26}.E{stroke-width:.016}.F{stroke-width:.01}.G{fill:#fff}.H{fill:#7e2418}.I{fill:#4468b2}.J{fill:#008e6e}.K{stroke-linejoin:round}.L{stroke-width:.005}.M{stroke-linecap:round}]]></style><g clip-path="url(#A)"><path d="M249.405 4.408H.644v158.231h248.761V4.408z" class="D"/><path d="M248.762 4.974v157.052H1.238V4.974h247.524zM250 3.795H0v159.41h250V3.795z" fill="#878889"/><path d="M248.811 44.249H1.288v78.502h247.523V44.249z" fill="#fed500"/><g class="C E"><path d="M100.308 66.361l-.793 1.697-1.189 1.839-3.715 2.31H72.915l-2.774-2.027-2.13-2.122-.148-1.226-.545-.424c1.436-1.179 3.864-2.404 6.489-2.31 4.755.189 3.665-1.556 10.006-1.556s5.201 1.791 10.006 1.556c2.675-.094 5.052 1.084 6.489 2.31v-.047z" class="D"/><g class="B"><path d="M83.812 71.173c-4.409 0-8.371.521-11.244 1.327-.198.047-.396 0-.446-.19s0-.379.248-.426c2.873-.853 6.935-1.374 11.442-1.374 4.557 0 8.619.521 11.492 1.374.198.047.297.237.198.426-.05.189-.248.237-.446.19-2.873-.805-6.836-1.327-11.244-1.327z"/></g></g><use href="#B" class="B"/><g class="C E"><use href="#B"/><g class="B"><path d="M91.886 65.23l-.446.33-.694-1.084c.743-.424 1.238-1.179 1.238-2.027v-.283c-.05-1.367-1.833-2.499-4.012-2.499-1.139 0-2.18.283-2.923.755 0-.189 0-.377-.05-.566.793-.472 1.833-.707 2.972-.707 2.526 0 4.508 1.367 4.607 2.97v.283a2.7 2.7 0 0 1-1.09 2.169l.347.566.05.094zm-15.851-.566c-.644-.566-1.09-1.32-1.09-2.169v-.283c.099-1.603 2.08-2.97 4.607-2.97 1.139 0 2.179.283 2.972.707 0 .189-.049.377-.099.566-.743-.471-1.783-.754-2.923-.754-2.18 0-3.913 1.131-4.012 2.499v.283c0 .849.495 1.603 1.238 2.027l-.694 1.084-.446-.33.347-.566.099-.094z"/><path d="M83.813 58.912c.594 0 1.09.377 1.189.849.099.424.099.943.149 1.462v.377c0 1.084.198 2.075.396 2.688l-1.784 1.603-1.783-1.603c.248-.613.396-1.556.446-2.687v-.377c0-.519.049-.99.148-1.462s.644-.849 1.238-.849z"/><path d="M83.812 59.478c.297 0 .545.188.594.424.099.424.149.896.149 1.367v.33a8.42 8.42 0 0 0 .396 2.546l-1.139 1.037-1.189-1.037c.198-.566.396-1.462.396-2.546v-.33c0-.471 0-.943.148-1.367.049-.236.347-.424.644-.424zm8.074 5.752c.842-.613 1.387-1.462 1.387-2.357 0-1.037-.743-1.98-1.833-2.64.694.519 1.09 1.226 1.139 1.933v.283a2.7 2.7 0 0 1-1.09 2.169l.347.566.05.047z"/></g></g><use href="#C" class="B"/><g class="C E"><use href="#C"/><g class="B"><path d="M98.622 61.835c.644.377 1.09.849 1.387 1.367.198.377.297.802.297 1.226a2.76 2.76 0 0 1-.792 1.933l.545.801c.495-.613.792-1.32.792-2.122 0-1.32-.891-2.452-2.229-3.206zm-22.587 2.829c-.644-.566-1.09-1.32-1.09-2.169v-.283c.05-.754.495-1.415 1.139-1.933-1.09.613-1.833 1.556-1.833 2.64 0 .943.495 1.745 1.387 2.358l.347-.566.049-.047z"/></g></g><use href="#D" class="B"/><g class="C E"><use href="#D"/><path d="M68.952 61.835c-1.337.754-2.229 1.886-2.229 3.206 0 .754.297 1.462.793 2.122l.545-.801c-.495-.519-.792-1.179-.792-1.933 0-.424.099-.849.297-1.226.248-.519.743-.99 1.387-1.367z" class="B"/><g class="G"><use href="#E"/><use href="#F"/><use href="#G"/><path d="M65.732 64.665s.149-.332.347-.332a.33.33 0 0 1 .346.332.33.33 0 0 1-.346.332c-.198 0-.347-.142-.347-.332zm.297-.99s.149-.332.347-.332.347.142.347.332-.148.332-.347.332-.347-.142-.347-.332z"/><use href="#H"/><path d="M67.318 61.978s.148-.331.346-.331.347.142.347.331-.149.332-.347.332a.33.33 0 0 1-.346-.332zm.841-.613s.149-.332.347-.332.347.142.347.332-.149.331-.347.331-.347-.142-.347-.331zm1.04-.519s.149-.332.347-.332.347.142.347.332-.198.332-.347.332c-.198 0-.347-.142-.347-.332zm1.09-.377s.149-.332.347-.332.347.142.347.332-.149.331-.347.331-.347-.142-.347-.331zm1.189-.188s.149-.332.347-.332.347.142.347.332-.149.332-.347.332-.347-.142-.347-.332zm1.09-.048s.148-.332.347-.332.347.142.347.332-.149.332-.347.332-.347-.142-.347-.332zm1.138.048s.149-.332.347-.332.347.142.347.332-.149.332-.347.332-.347-.142-.347-.332zm1.091 0s.198-.332.347-.332c.198 0 .347.142.347.332s-.149.332-.347.332-.347-.142-.347-.332zm-.545.895s.149-.332.347-.332.347.142.347.332-.149.332-.347.332-.347-.142-.347-.332z"/><path d="M74.054 62.167s.149-.332.347-.332.347.142.347.332-.149.332-.347.332-.347-.142-.347-.332zm-.05.99s.149-.331.347-.331.347.142.347.331-.149.332-.347.332-.347-.142-.347-.332zm.297.895s.149-.331.347-.331.347.142.347.331-.149.332-.347.332-.347-.142-.347-.332zm.644.849s.149-.332.347-.332.347.142.347.332-.149.331-.347.331-.347-.142-.347-.331zm.694-5.28s.149-.331.347-.331.347.142.347.331-.148.332-.347.332-.347-.142-.347-.332zm.991-.519s.149-.332.347-.332.347.142.347.332-.149.332-.347.332-.347-.142-.347-.332zm1.089-.33s.149-.332.347-.332.347.142.347.332-.149.332-.347.332-.347-.142-.347-.332zm1.14-.141s.149-.332.347-.332.347.142.347.332-.149.332-.347.332-.347-.142-.347-.332zm1.09 0s.149-.332.347-.332.347.142.347.332-.149.332-.347.332-.347-.142-.347-.332zm1.14.188s.149-.332.347-.332.347.142.347.332-.149.332-.347.332-.347-.142-.347-.332zm1.09.33s.148-.332.347-.332.347.142.347.332-.149.332-.347.332-.347-.142-.347-.332zm.99 5.329c0-.332.297-.568.644-.568s.644.237.644.568-.297.569-.644.569-.644-.237-.644-.569z"/><path d="M83.169 63.347c0-.284.297-.569.644-.569s.644.237.644.569-.297.569-.644.569-.644-.237-.644-.569zm.099-1.227c0-.237.198-.426.495-.426s.496.19.496.426-.198.474-.496.474-.495-.189-.495-.474zm.149-1.038s.148-.331.347-.331.347.142.347.331-.149.332-.347.332-.347-.142-.347-.332zm.098-.943s.149-.284.297-.284.297.142.297.284-.149.237-.297.237-.297-.142-.297-.237z"/><use href="#I"/><path d="M101.1 67.025s-.347-.142-.347-.332.148-.331.347-.331a.33.33 0 0 1 .346.331.33.33 0 0 1-.346.332zm.346-.991s-.347-.142-.347-.332.149-.332.347-.332.347.142.347.332-.149.332-.347.332zm0-.99s-.347-.142-.347-.332.149-.332.347-.332.347.142.347.332-.149.332-.347.332zm-.248-1.037s-.347-.142-.347-.332.149-.332.347-.332.347.142.347.332-.149.332-.347.332zm-.544-.943s-.347-.142-.347-.332.149-.332.347-.332.347.142.347.332-.149.332-.347.332zm-.742-.754s-.347-.142-.347-.332.149-.331.347-.331a.33.33 0 0 1 .346.331.33.33 0 0 1-.346.332z"/><use href="#J"/><path d="M98.029 61.178s-.347-.142-.347-.332.149-.332.347-.332.347.142.347.332-.149.332-.347.332zm-1.09-.377s-.347-.142-.347-.331.149-.332.347-.332.347.142.347.332-.149.331-.347.331zm-1.19-.189s-.347-.142-.347-.332.198-.332.347-.332c.198 0 .347.142.347.332s-.149.332-.347.332zm-1.138-.047s-.347-.142-.347-.332.148-.332.347-.332.347.142.347.332-.149.332-.347.332zm-1.09 0s-.347-.142-.347-.332.149-.332.347-.332.347.142.347.332-.149.332-.347.332zm-1.09 0s-.346-.142-.346-.332a.33.33 0 0 1 .346-.332c.198 0 .347.142.347.332s-.149.332-.347.332z"/><use href="#K"/><path d="M93.521 62.167s-.149.332-.347.332-.347-.142-.347-.332.149-.332.347-.332.347.142.347.332z"/><use href="#L"/><path d="M93.273 64.052s-.149.332-.347.332-.347-.142-.347-.332.149-.331.347-.331.347.142.347.331zm-.594.849s-.149.331-.347.331-.347-.142-.347-.331.149-.332.347-.332.347.142.347.332zm-1.09-4.948s-.347-.142-.347-.332.149-.331.347-.331.347.142.347.331-.149.332-.347.332zm-.99-.519s-.347-.142-.347-.332.149-.332.347-.332.347.142.347.332-.149.332-.347.332zm-1.09-.331s-.347-.142-.347-.332.149-.332.347-.332.347.142.347.332-.149.332-.347.332zm-1.139-.188s-.347-.142-.347-.332.149-.332.347-.332.347.142.347.332-.148.332-.347.332zm-1.09.047s-.347-.142-.347-.332.149-.332.347-.332.347.142.347.332-.149.332-.347.332zm-1.189.188s-.347-.142-.347-.332.149-.332.347-.332.347.142.347.332-.149.332-.347.332zm-1.04.331s-.347-.142-.347-.332.149-.332.347-.332.347.142.347.332-.149.332-.347.332z"/></g><path d="M82.327 57.686c0-.707.644-1.32 1.436-1.32s1.437.613 1.437 1.32-.644 1.32-1.437 1.32-1.436-.566-1.436-1.32z" class="I"/><g class="B"><path d="M85.249 57.45h-1.04v-2.075h.792v-.707h-.792v-.707h-.792v.707h-.793v.707h.793v2.075h-1.04v.188c0 .189 0 .377.148.519H85.2s.148-.33.148-.519v-.188h-.099zm-9.312 11.084s-.198-.19-.198-.332 0-.284.05-.379c0 0-.297-.142-.594-.19-.248-.047-.644-.047-.792-.047h-.396s0 .048.099.19l.148.237a1.82 1.82 0 0 0-.991.663c.297.19.743.332 1.189.284 0 0 0 .095-.05.284v.189l.347-.142c.149 0 .495-.189.693-.284l.496-.379v-.095zm8.42-.664s.198-.236.198-.424c0-.141-.05-.283-.149-.425 0 0 .297-.189.644-.33.248-.094.694-.188.842-.188s.396-.094.396-.094 0 .047-.05.189c-.05.189-.148.283-.148.283.495 0 .941.236 1.238.566a2.13 2.13 0 0 1-1.238.566l.148.283c0 .141.05.188.05.188l-.396-.094s-.595-.094-.842-.189c-.347-.141-.644-.33-.644-.33h-.049zm-11.937.896c-.396-.142-.842-.189-1.238-.141v-.283-.189l-.446.236c-.198.094-.644.33-.842.519-.149.189-.297.519-.297.519s.198-.707 0-1.179-.644-.566-.644-.566l-.099.33s-.496-.33-.793-.33c-.545 0-.991.424-.991.896 0 0 .743-.047 1.139.142.446.236.792.896.792.896s0-.047.05-.094c.149-.189.495-.141.792.094.099.094.198.188.248.33.149 0 .396.047.594.047.248 0 .743-.047.892-.047s.396-.047.396-.047l-.149-.142-.248-.236a1.55 1.55 0 0 0 .842-.707v-.047zm4.457-.417s.099-.237.099-.379-.099-.237-.198-.332c0 0 .198-.237.495-.426.198-.142.594-.237.694-.284s.347-.142.347-.142v.189c0 .189-.05.285-.05.285.446 0 .842.094 1.189.331a1.82 1.82 0 0 1-.99.663s.099.095.148.237a.51.51 0 0 0 .099.19h-.396c-.149 0-.545 0-.792-.047-.297-.095-.594-.237-.594-.237l-.05-.047zm6.39-.479s-.148-.236-.148-.424a.74.74 0 0 1 .148-.425s-.297-.189-.644-.33c-.248-.094-.693-.188-.842-.188s-.446-.094-.446-.094 0 .047.05.189c.05.189.149.283.149.283-.495 0-.941.236-1.238.566a2.13 2.13 0 0 0 1.238.566l-.149.283c0 .141-.05.188-.05.188s.297-.047.446-.094c.149 0 .594-.094.842-.189.347-.141.644-.33.644-.33z"/><path d="M84.753 65.324l-.297.189c0-.472-.297-.896-.644-1.179-.347.283-.594.754-.594 1.179 0 0-.05-.094-.297-.189s-.446-.047-.446-.047l.198.424c.049.141.148.471.297.801a2.71 2.71 0 0 0 .347.566c.149-.142.347-.236.545-.236s.446.094.545.236c0 0 .198-.236.347-.566s.198-.66.248-.801l.198-.424s-.198 0-.446.047zm-7.974.754l-.248.189a1.6 1.6 0 0 0-.743-.943c-.248.33-.396.707-.347 1.132 0 0-.049-.047-.297-.094h-.396l.248.377.347.66a5.93 5.93 0 0 0 .396.424c.099-.141.248-.236.446-.283.198 0 .396 0 .545.141 0 0 .149-.236.198-.519.099-.283.099-.613.099-.707s.099-.424.099-.424-.149 0-.347.094v-.047zm13.969 1.892s.099-.237.198-.332c0 0-.198-.237-.495-.426-.198-.142-.594-.237-.694-.284-.149 0-.347-.142-.347-.142v.189c0 .189.05.285.05.285-.446 0-.842.094-1.189.331a1.82 1.82 0 0 0 .991.663s-.05.095-.149.237-.099.19-.099.19h.396s.545 0 .793-.047c.297-.095.594-.237.594-.237s-.099-.237-.099-.379l.05-.047z"/><path d="M92.53 66.361l-.297.094c.049-.424-.099-.802-.347-1.132-.347.189-.644.566-.743.943 0 0 0-.094-.248-.189-.198-.094-.346-.094-.346-.094s0 .33.099.424c0 .094 0 .424.099.707l.198.519c.149-.094.297-.189.496-.141.198 0 .347.141.446.283 0 0 .198-.189.396-.424s.297-.566.347-.66.248-.377.248-.377-.149-.047-.396 0l.05.047z"/><path d="M93.224 68.867c.446 0 .842-.095 1.189-.284a1.82 1.82 0 0 0-.991-.663s.099-.095.149-.237.099-.189.099-.189h-.396c-.149 0-.545 0-.793.047l-.594.189c.05.142.099.237.05.379 0 .142-.099.237-.198.332a1.64 1.64 0 0 0 .495.379c.198.142.594.237.694.284.099 0 .347.142.347.142v-.19c0-.189-.05-.284-.05-.284v.095zm6.39-1.233c-.347 0-.644.141-.842.33v-.33s-.545.094-.743.566 0 1.179 0 1.179-.099-.283-.248-.519a3.09 3.09 0 0 0-.842-.519l-.446-.236v.189.283c-.396-.047-.892 0-1.238.142.149.283.446.566.892.707 0 0-.149.094-.297.236l-.148.142a2.02 2.02 0 0 0 .446.047c.149 0 .595.094.892.047.198 0 .446 0 .594-.047 0-.141.099-.236.248-.33.248-.236.594-.236.792-.094 0 0 0 .047.05.094 0 0 .347-.66.793-.896s1.139-.142 1.139-.142c0-.519-.446-.896-.991-.896l-.05.047z"/></g><g class="D"><path d="M75.639 68.062c0-.379.297-.663.693-.663s.694.284.694.663-.297.663-.694.663-.693-.284-.693-.663zm14.959 0c0-.379.297-.663.694-.663s.694.284.694.663-.297.663-.694.663-.694-.284-.694-.663z"/></g></g><use href="#M" class="D"/><g class="C"><g class="E"><use href="#M"/><g class="D"><path d="M69.051 69.521s.495-.142.793.095c.248.189.347.521.149.663-.149.189-.495.142-.793-.095-.248-.19-.347-.521-.148-.663zm14.068-2.073c0-.332.297-.616.693-.616s.694.284.694.616-.297.663-.694.663-.693-.284-.693-.663z"/></g><g class="B"><path d="M83.812 76.121c-4.012 0-7.628-.472-10.204-1.179-.198-.047-.297-.235-.248-.377 0-.141.099-.33.248-.377 2.576-.754 6.192-1.179 10.204-1.226 4.062 0 7.628.472 10.254 1.226.198 0 .297.189.248.377 0 .189-.099.33-.248.377-2.576.754-6.192 1.179-10.254 1.179z"/><path d="M83.812 72.962c-4.854 0-8.322.66-10.204 1.226.198-.094.05-.283-.198-.943-.347-.802-.842-.754-.842-.754 2.824-.802 6.836-1.32 11.244-1.32s8.421.519 11.294 1.32c0 0-.495 0-.842.754-.248.66-.297.896-.05.99-2.576-.754-6.341-1.226-10.402-1.273z"/></g><g class="G"><path d="M94.958 69.806c.099-.284 0-.521-.198-.569s-.446.095-.545.379c-.099.237 0 .521.198.569s.446-.095.545-.379zm-7.034-1.321c0-.284-.099-.521-.297-.521s-.396.19-.446.474c0 .284.099.521.297.521s.396-.19.446-.474zm-8.173 0c0-.284.099-.521.297-.521s.396.19.446.474c0 .284-.099.521-.297.521s-.396-.19-.446-.474zm-7.034 1.321c-.099-.284 0-.521.198-.569s.446.095.545.379c.099.237 0 .521-.198.569s-.446-.095-.545-.379zm7.975 2.309s.149-.332.347-.332.347.142.347.332-.149.332-.347.332-.347-.142-.347-.332z"/></g><path d="M82.773 72.352s-.347-.142-.347-.332.149-.332.347-.332h2.18s.346.142.346.332-.198.332-.346.332h-2.18z" class="D"/><path d="M79.107 71.925l-1.585.189s-.347.19-.297.379c0 .19.198.284.396.284l1.585-.19s.347-.189.297-.379c0-.189-.198-.284-.396-.284z" class="J"/><path d="M75.242 72.728s.149-.332.347-.332.347.142.347.332-.149.332-.347.332-.347-.142-.347-.332z" class="G"/><path d="M72.816 73.294l.396-.521 1.09.142-.892.616-.594-.237z" class="D"/><path d="M90.054 72.731s.396-.095.396-.284-.099-.332-.297-.379l-1.585-.189s-.396.095-.396.284a.36.36 0 0 0 .297.379l1.585.19z" class="J"/><g class="G"><path d="M86.289 72.115s.149-.332.347-.332.347.142.347.332-.149.332-.347.332-.347-.142-.347-.332zm5.399.613s.149-.332.347-.332.347.142.347.332-.149.332-.347.332-.347-.142-.347-.332z"/></g><g class="D"><path d="M94.809 73.294l-.396-.521-1.09.142.892.616.594-.237zm-10.997 2.365c-3.616 0-6.935-.379-9.411-1.042 2.526-.616 5.795-.995 9.411-.995 3.666 0 6.935.379 9.461.995-2.526.616-5.796 1.042-9.461 1.042z"/></g><path d="M73.955 74.712c2.576-.663 5.994-1.09 9.857-1.09s7.331.426 9.907 1.09" class="K M"/></g><path d="M82.971 75.659v-2.037" class="L"/><g class="F"><path d="M82.376 75.659v-2.037m-.446 2.037v-2.037m-.94 1.895V73.67m.446 1.848v-1.895m-1.339 1.799v-1.658m.446 1.753v-1.8"/></g><g class="E"><path d="M78.958 75.326v-1.469m.396 1.516V73.81m.396 1.611V73.81m-1.188 1.516v-1.421m-.396 1.373v-1.326"/></g><g stroke-width=".021"><path d="M77.769 75.231v-1.232m-.842 1.09v-.995m.446 1.043v-1.09m-.843.994v-.853"/></g><g stroke-width=".026"><path d="M76.135 74.946v-.71m-.447.615v-.569m-.446.521v-.427"/></g><path d="M74.797 74.692v-.174" stroke-width=".031"/></g><use href="#N" class="D"/><use href="#N" class="C F"/><g class="B"><path d="M110.957 74.756l-.198-.189s-.198.095-.396.095-.298-.284-.298-.284-.247.19-.495.19c-.198 0-.347-.19-.347-.19s-.247.142-.445.142-.397-.237-.397-.237-.198.237-.396.284c-.198 0-.396-.19-.396-.19s-.099.19-.347.237c-.248 0-.495-.19-.495-.19s-.149.237-.298.284c-.198.047-.396-.094-.396-.094s0 .095-.049.142c0 .047-.099.047-.099.047v.142c.693-.19 1.535-.284 2.526-.284s1.882.095 2.526.284v-.189z"/><path d="M108.481 73.999v.094a.33.33 0 0 0 .346.332c.149 0 .297-.095.347-.237 0 .189.198.284.347.284a.33.33 0 0 0 .346-.332s.1-.047.1 0v.19a.33.33 0 0 0 .346.331c.099 0 .199-.047.298-.142l.098-.095v.095s.001.189.149.237c0 0 .149 0 .297-.142.199-.142.248-.237.248-.237v.142s-.149.284-.297.332c-.099 0-.198.095-.297.095s-.198-.095-.198-.189c-.099 0-.149.047-.248.047a.55.55 0 0 1-.496-.284c-.099.095-.198.142-.396.142-.149 0-.297-.095-.396-.189a.55.55 0 0 1-.347.142c-.198 0-.347-.095-.446-.237-.099.142-.247.237-.445.237-.149 0-.248 0-.347-.142-.099.095-.248.189-.396.189s-.298-.047-.397-.142c-.049.189-.247.284-.445.284-.1 0-.199 0-.248-.047 0 .095-.099.189-.198.189s-.248 0-.298-.095c-.148-.095-.346-.332-.346-.332v-.142a2.97 2.97 0 0 0 .297.237c.198.142.297.142.297.142.099 0 .149-.142.149-.237 0 0 .247.142.347.142a.33.33 0 0 0 .346-.331v-.142h.198c0 .189.149.332.347.332s.347-.095.347-.284c0 .142.198.237.347.237a.33.33 0 0 0 .346-.332v-.095"/></g><g class="C F"><path d="M108.481 73.999v.094a.33.33 0 0 0 .346.332c.149 0 .297-.095.347-.237m0 0v-.142m0 .142c0 .189.198.284.347.284a.33.33 0 0 0 .346-.332s.1-.047.1 0v.19a.33.33 0 0 0 .346.331c.099 0 .199-.047.298-.142l.098-.095v.095s.001.189.149.237c0 0 .149 0 .297-.142.199-.142.248-.237.248-.237v.142s-.149.284-.297.332c-.099 0-.198.095-.297.095s-.198-.095-.198-.189c-.099 0-.149.047-.248.047a.55.55 0 0 1-.496-.284c-.099.095-.198.142-.396.142-.149 0-.297-.095-.396-.189a.55.55 0 0 1-.347.142c-.198 0-.347-.095-.446-.237-.099.142-.247.237-.445.237-.149 0-.248 0-.347-.142-.099.095-.248.189-.396.189s-.298-.047-.397-.142c-.049.189-.247.284-.445.284-.1 0-.199 0-.248-.047 0 .095-.099.189-.198.189s-.248 0-.298-.095c-.148-.095-.346-.332-.346-.332v-.142a2.97 2.97 0 0 0 .297.237c.198.142.297.142.297.142.099 0 .149-.142.149-.237m0 0v-.095m0 .095s.247.142.347.142a.33.33 0 0 0 .346-.331v-.142h.198c0 .189.149.332.347.332s.347-.095.347-.284m0 0v-.142m0 .142c0 .142.198.237.347.237a.33.33 0 0 0 .346-.332v-.095"/><g class="B"><path d="M107.936 72.918c0-.332.198-.616.446-.616s.446.284.446.616-.198.616-.446.616-.446-.284-.446-.616z"/><path d="M108.183 72.918c0-.332.099-.568.199-.568s.198.237.198.568-.099.569-.198.569-.199-.237-.199-.569z"/><path d="M108.084 72.209s.149-.284.297-.284.297.142.297.284-.148.284-.297.284-.297-.142-.297-.284z"/><path d="M108.481 72.117v-.379h.247v-.189h-.247v-.189h-.149v.189h-.248v.189h.248v.379h-.347v.189h.842v-.189h-.346z"/></g></g><use href="#O" class="B"/><g class="C"><g class="F"><use href="#O"/><g class="B"><path d="M108.381 76.219c.792 0 1.684-.142 2.031-.189.198-.047.346-.142.297-.284 0 0 0-.095-.099-.142-.495-.142-1.338-.237-2.229-.237s-1.734.095-2.229.237c-.05 0-.099.095-.099.142 0 .095.099.189.297.284.297.095 1.189.189 2.031.189zm0-1.417c-.99 0-1.882.095-2.526.284 0 0-.099 0-.099-.047 0 0 0-.095.05-.095.644-.19 1.535-.331 2.575-.331s1.932.142 2.576.331c0 0 .05.047.05.095 0 0-.05.047-.099.047-.644-.189-1.536-.284-2.527-.284z"/></g><path d="M108.381 75.65c-.793 0-1.535.095-2.08.237.545.142 1.287.19 2.08.19s1.536-.095 2.08-.19c-.544-.142-1.287-.237-2.08-.237z" class="D"/><use href="#P" class="G"/><path d="M108.728 75.036h-.644s-.099 0-.099.095.05.094.099.094h.644s.099-.047.099-.094 0-.095-.099-.095z" class="D"/><path d="M107.043 75.084h-.445s-.1.142-.1.189.05.095.149.095h.446s.099-.142.099-.189c0 0-.05-.095-.099-.095h-.05z" class="J"/><path d="M106.004 75.319l-.099.142.198.047.099-.142-.198-.047z" class="D"/><path d="M109.074 75.131s.05-.142.149-.142.149.048.149.142-.05.142-.149.142-.149-.047-.149-.142z" class="G"/><path d="M110.264 75.178h-.446-.148c0 .047-.001.095.098.095h.446.1c0-.047-.001-.095-.1-.095h.05z" class="J"/><path d="M110.809 75.319h-.198l.099.19.198-.047-.099-.142z" class="D"/></g><g class="G L"><use href="#Q"/><path d="M110.264 72.729s.049-.142.148-.142.149.047.149.142-.049.142-.149.142-.148-.047-.148-.142zm-.396-.284s.049-.142.148-.142.149.047.149.142-.05.142-.149.142-.148-.047-.148-.142zm-.446-.142s.049-.142.148-.142.149.047.149.142c0 .047-.049.142-.149.142s-.148-.047-.148-.142zm-.495 0s.049-.142.148-.142.149.047.149.142-.05.142-.149.142-.148-.047-.148-.142z"/></g><g class="F"><path d="M111.8 74.099s.099-.237.099-.332c0-.521-.396-.9-.941-.9-.149 0-.297 0-.446.095" class="M"/><path d="M110.165 73.485s.099-.189.099-.284c0-.379-.397-.663-.892-.663-.198 0-.396 0-.545.142"/></g><g class="G L"><path d="M111.948 73.722s.05-.142.149-.142.148.047.148.142-.049.142-.148.142-.149-.047-.149-.142zm-.049-.474s.049-.142.148-.142.149.047.149.142c0 .047-.05.142-.149.142s-.148-.047-.148-.142zm-.347-.379s.05-.142.149-.142.148.047.148.142-.049.142-.148.142-.149-.047-.149-.142zm-.446-.189s.05-.142.149-.142.148.047.148.142-.049.142-.148.142-.149-.047-.149-.142zm-.495 0s.049-.142.148-.142.149.047.149.142c0 .047-.05.142-.149.142s-.148-.047-.148-.142zm-4.46.518s.05-.142.149-.142.149.047.149.142-.05.142-.149.142-.149-.047-.149-.142zm.1-.469s.049-.142.148-.142.149.047.149.142-.05.142-.149.142-.148-.047-.148-.142zm.396-.284s.05-.142.149-.142.148.047.148.142-.049.142-.148.142-.149-.047-.149-.142zm.446-.142s.099-.142.149-.142c.099 0 .148.047.148.142 0 .047-.049.142-.148.142s-.149-.047-.149-.142zm.495 0s.05-.142.149-.142.149.047.149.142-.1.142-.149.142c-.099 0-.149-.047-.149-.142z"/></g><g class="F"><path d="M104.964 74.099s-.05-.237-.05-.332c0-.521.396-.9.941-.9.149 0 .298 0 .446.095" class="M"/><path d="M106.647 73.485s-.099-.189-.099-.284c0-.379.396-.663.842-.663.198 0 .396 0 .545.142"/></g><path d="M104.567 73.722s.049-.142.148-.142.149.047.149.142-.05.142-.149.142-.148-.047-.148-.142zm.049-.474s.05-.142.149-.142.148.047.148.142c0 .047-.049.142-.148.142s-.149-.047-.149-.142zm.347-.379s.049-.142.148-.142.149.047.149.142-.05.142-.149.142-.148-.047-.148-.142zm.446-.189s.049-.142.148-.142.149.047.149.142-.05.142-.149.142-.148-.047-.148-.142zm.495 0s.049-.142.148-.142.149.047.149.142c0 .047-.049.142-.149.142s-.148-.047-.148-.142z" class="G L"/><g class="B F"><path d="M107.144 73.719l-.396.189.099-.379-.297-.095-.199.189.248.332-.396-.047-.099.237.149.142.445-.19.05-.047.495.047.099-.189-.198-.189zm-2.032.612l-.049.095h.099l.446-.047.049-.189-.198-.142-.347.285zm3.369-.517l.198-.426-.297-.142-.248.142.198.426-.396-.142-.148.189.148.189.396-.142h.1l.445.142.149-.189-.149-.189-.396.142zm2.131.094l-.397.047.248-.332-.198-.189-.297.095.099.379-.397-.189-.148.189.049.189.446-.047.149.047.396.19.149-.142-.099-.237zm.692.139l-.198.142.05.189.446.047h.049v-.095l-.347-.285zm-6.34-.047h-.148c-.099 0-.198.047-.198.095 0 0 .148 0 .198.095a1.87 1.87 0 0 1 .198.237v-.094-.237c0-.095-.099-.095-.099-.095h.049z"/><path d="M111.949 74s-.099 0-.149.047h-.149v.237.094s.149-.142.199-.237c.049-.047.198-.095.198-.095s-.099-.095-.198-.095l.099.047zm-5.401 0s.05-.142.149-.142.148.047.148.142-.049.142-.148.142-.149-.047-.149-.142zm1.685-.141s.099-.142.149-.142.148.047.148.142-.049.142-.148.142-.149-.047-.149-.142zm1.733.141s.099-.142.149-.142.148.047.148.142-.099.142-.148.142-.149-.047-.149-.142z"/></g></g><use href="#R" class="B"/><path d="M105.112 74.33h.099c.049 0 .099.142 0 .142h-.05-.099c-.049 0-.099-.142 0-.142h.05zm0-.095s-.099 0-.149.047v.095c0 .047 0 .142.099.142 0 0 .099.047.149.047h.149s.049-.095 0-.142c0-.047 0-.095-.1-.142 0 0-.099-.047-.148-.047z" class="H"/><path d="M111.552 74.617l-.099-.05.099.05z" class="B"/><path d="M111.651 74.33h.049v.142h-.099-.049v-.142h.099zm0-.095s-.099 0-.149.047c-.049 0-.099.095-.099.142v.095h.149c.049 0 .099 0 .148-.047.05 0 .099-.095.099-.189v-.095s-.099-.047-.148-.047v.095z" class="H"/><g class="C F"><path d="M61.867 74.848s.396-.189.694-.377c1.337-.99-.297-1.886-.941-1.697-.446-.377-1.387-.613-2.279-.33-.892-.283-1.832 0-2.278.33-.644-.189-2.279.66-.941 1.697.248.189.693.377.693.377h5.102-.05z" class="D"/><path d="M59.342 74.801h-1.585l-.198-1.226c-.446-.566-.842-.896-.991-.849 0-.094.05-.189.149-.236.396-.189 1.189.283 1.833 1.179.05.094.099.189.148.236h1.238l.149-.236c.595-.849 1.437-1.367 1.833-1.179.099.047.149.141.149.236-.149-.047-.545.283-.991.849l-.198 1.226h-1.585.05z" class="B"/><path d="M56.667 72.727c.297-.19 1.04.379 1.585 1.232m3.765-1.232c-.297-.19-1.04.379-1.585 1.232"/><g class="B"><path d="M58.847 72.778c0-.426.198-.758.446-.758s.446.332.446.758-.198.805-.446.805-.446-.332-.446-.805z"/><path d="M59.094 72.777c0-.379.099-.711.198-.711s.198.332.198.711-.099.71-.198.71-.198-.331-.198-.71z"/><path d="M58.994 71.973s.149-.284.297-.284.297.142.297.284-.149.284-.297.284c-.198 0-.297-.142-.297-.284z"/><path d="M59.738 71.882v.189h-.842v-.189h.297v-.427h-.198v-.189h.198v-.189h.198v.189h.198v.189h-.198v.427h.347z"/></g></g><path d="M61.869 74.804l-2.576-.616-2.526.616v.142c.693-.19 1.585-.284 2.526-.284s1.833.095 2.526.284v-.189" class="B"/><use href="#S" class="B"/><use href="#S" class="C F"/><path d="M59.293 76.267c.793 0 1.684-.142 2.031-.189.198-.047.347-.142.297-.284 0 0-.05-.095-.149-.142-.495-.142-1.337-.237-2.229-.237s-1.734.095-2.229.237c-.05 0-.099.095-.149.142 0 .095.099.19.297.284.347.095 1.239.189 2.031.189" class="B"/><g class="C F"><path d="M59.293 76.267c.793 0 1.684-.142 2.031-.189.198-.047.347-.142.297-.284 0 0-.05-.095-.149-.142-.495-.142-1.337-.237-2.229-.237s-1.734.095-2.229.237c-.05 0-.099.095-.149.142 0 .095.099.19.297.284.347.095 1.239.189 2.031.189h.099zm2.575-1.463l-.198-.189s-.198.095-.446.095c-.198 0-.297-.284-.297-.284s-.248.19-.446.19-.347-.19-.347-.19-.248.142-.446.142-.396-.284-.396-.284-.198.237-.396.284c-.198 0-.347-.19-.347-.19s-.099.19-.347.237c-.248 0-.495-.19-.495-.19s-.149.237-.347.284-.396-.095-.396-.095 0 .095-.05.142c0 .047-.099.047-.099.047v.142c.694-.189 1.585-.284 2.526-.284s1.833.095 2.526.284v-.189h.05l-.05.047z"/></g><path d="M59.342 74h.099v.142c0 .189.198.332.347.332s.297-.095.347-.237c0 0 0-.142.05-.142s0 .142 0 .142c0 .19.198.284.347.284.198 0 .347-.142.347-.332l.099-.095v.142.142c0 .189.149.332.347.332.149 0 .248-.047.297-.142l.099-.095v.095s0 .189.148.237c0 0 .099 0 .297-.142l.248-.237v.142s-.149.284-.297.332c-.099 0-.198.095-.297.095s-.198-.095-.198-.189c-.099 0-.149.047-.248.047-.198 0-.396-.095-.495-.284-.099.095-.198.142-.396.142s-.297-.095-.396-.189a.46.46 0 0 1-.347.142c-.198 0-.347-.095-.446-.237-.099.142-.247.237-.446.237a.46.46 0 0 1-.347-.142c-.099.095-.248.189-.396.189s-.297-.047-.396-.142c-.099.142-.248.284-.495.284-.099 0-.198 0-.248-.047 0 .095-.099.189-.198.189s-.248 0-.297-.095c-.149-.095-.347-.332-.347-.332v-.142s.148.095.297.237a.47.47 0 0 0 .297.142c.099 0 .148-.142.148-.237h.099s.149.142.297.142c.198 0 .347-.142.347-.332v-.142-.142l.198.095c0 .19.149.332.347.332s.347-.095.347-.284c0 .142.198.237.347.237.198 0 .347-.142.347-.332V74h.099.05z" class="B"/><g class="C F"><path d="M58.5 74.237c0 .19-.149.284-.347.284s-.347-.142-.347-.332l-.198-.095v.142.142c0 .189-.149.332-.347.332-.149 0-.297-.142-.297-.142h-.099c0 .095-.049.237-.148.237 0 0-.149 0-.297-.142s-.297-.237-.297-.237v.142s.198.237.347.332c.05.095.198.095.297.095s.198-.095.198-.189c.05.047.149.047.248.047.248 0 .396-.142.495-.284.099.095.247.142.396.142s.297-.095.396-.189a.46.46 0 0 0 .347.142c.198 0 .347-.095.446-.237.099.142.248.237.446.237a.46.46 0 0 0 .347-.142c.099.095.198.189.396.189s.297-.047.396-.142c.099.189.297.284.495.284.099 0 .149-.047.248-.047 0 .095.099.189.198.189s.198-.095.297-.095c.149-.047.297-.332.297-.332v-.142l-.248.237c-.198.142-.297.142-.297.142-.149-.047-.148-.237-.148-.237v-.095l-.099.095c-.05.095-.149.142-.297.142-.198 0-.347-.142-.347-.332v-.142-.142l-.099.095c0 .19-.149.332-.347.332-.149 0-.347-.095-.347-.284 0 0 .05-.142 0-.142s-.05.142-.05.142c-.05.142-.198.237-.347.237s-.347-.142-.347-.332V74h-.099-.05-.099v.142c0 .189-.149.332-.347.332-.149 0-.347-.095-.347-.237zm0 0v-.142"/><path d="M59.292 74.849c-.991 0-1.882.142-2.526.284 0 0-.099 0-.099-.047 0 0 0-.095.05-.095.644-.189 1.535-.332 2.576-.332s1.932.142 2.576.332c0 0 .05.047.05.095 0 0-.05.047-.099.047-.644-.19-1.536-.284-2.526-.284z" class="B K"/><path d="M58.352 75.179s.049-.142.148-.142.149.048.149.142-.05.142-.149.142-.148-.047-.148-.142z" class="G"/><path d="M59.342 75.226h-.297s-.099 0-.099-.095 0-.095.099-.095h.644s.099 0 .099.095 0 .095-.099.095h-.347z" class="D"/></g><use href="#T" class="J"/><g class="C F"><use href="#T"/><path d="M56.816 75.462l.099-.142h.198l-.149.237h-.198l.049-.095z" class="D"/><path d="M59.986 75.179s.05-.142.149-.142.148.048.148.142-.049.142-.148.142-.149-.047-.149-.142z" class="G"/><path d="M61.126 75.368s.099 0 .148-.095c0 0 0-.095-.099-.095l-.446-.095s-.099 0-.149.095c0 .047 0 .095.099.095l.446.095z" class="J"/><g class="D"><path d="M61.819 75.509l-.099-.142h-.198l.099.189h.198v-.047z"/><path d="M59.292 76.076c-.793 0-1.535-.095-2.08-.19.545-.142 1.288-.237 2.08-.237s1.536.095 2.081.237c-.545.142-1.288.19-2.081.19z" class="K"/></g></g><path d="M61.769 74.284s.05.095 0 .142c0 .047-.049.095-.099.095 0 0-.049-.095 0-.142 0-.047.049-.095.099-.095zm0-.095s-.148.047-.198.142v.142s.05.047.099.047c.099 0 .149-.047.198-.142 0-.095 0-.19-.099-.237v.047z" class="H"/><path d="M60.176 74s-.091 0-.091.087c0 .044 0 .13.045.13 0 0 .091 0 .091-.087 0-.043 0-.13-.091-.13h.045z" class="B"/><path d="M60.184 74s.099.047.099.142c0 .047-.049.095-.099.095 0 0-.099-.047-.05-.142 0-.047 0-.094.099-.094m0-.095s-.148.047-.148.189v.142s.05.047.099.047c0 0 .148-.047.198-.142 0-.142 0-.237-.149-.237z" class="H"/><path d="M58.442 74.273l-.091-.13.136.13h-.045z" class="B"/><path d="M58.5 74s.099 0 .099.094c0 .047 0 .142-.05.142 0 0-.099 0-.099-.095 0-.047 0-.142.05-.142zm0-.095s-.148.142-.148.237.099.142.148.142h.099s.05-.095 0-.142c0-.095-.099-.189-.149-.189l.05-.047z" class="H"/><path d="M56.858 74.511l-.091-.087.136.087h-.045z" class="B"/><path d="M56.866 74.284s.099 0 .099.095v.142s-.099 0-.099-.095v-.142zm0-.095s-.148.142-.099.237c0 .095.099.142.198.142 0 0 .05 0 .099-.095v-.142c0-.095-.099-.142-.198-.142z" class="H"/><g class="B C F"><path d="M59.292 73.245l-.297.19.198.426h.148l.198-.426-.297-.19h.049z"/><path d="M58.698 73.908l.149.189.446-.142v-.142l-.446-.142-.149.189v.047zm1.239 0l-.148.189-.446-.142v-.142l.446-.142.148.189v.047zm-2.477-.473l-.198.189.297.332h.149l.099-.474-.297-.095-.05.047zm-.446.707l.148.142.396-.19V74h-.495l-.099.237.05-.095z"/><path d="M58.252 73.908l-.099.189h-.446v-.189l.396-.189.198.142-.05.047zm-1.684.281v.189h-.495v-.094L56.37 74l.198.142v.047z"/></g><use href="#U" class="B"/><g class="C F"><use href="#U"/><g class="B"><path d="M61.175 73.435l.198.189-.297.332h-.149l-.099-.474.297-.095.049.047zm.445.707l-.198.142-.396-.19V74h.495l.099.237v-.095z"/><path d="M60.432 73.908l.099.189h.446v-.189l-.396-.189-.198.142.05.047zm1.584.281v.189h.495v-.094L62.214 74l-.198.142v.047zm-2.872-.283s.049-.142.148-.142.149.047.149.142-.05.142-.149.142-.148-.047-.148-.142z"/><path d="M60.878 74.047s.05-.142.149-.142.148.047.148.142-.049.142-.148.142-.149-.048-.149-.142zm-4.954.426s-.148-.142-.198-.237c-.05-.047-.198-.095-.198-.095s.099-.095.198-.095c.05 0 .099 0 .149.047h.099v.237.095l-.05.047z"/></g></g><path d="M56.072 74.617l-.099-.05.099.05z" class="B"/><path d="M56.024 74.33s.099 0 .099.047c.05 0 .099.095 0 .142h-.05-.099c-.05-.047-.099-.142 0-.189h.05zm0-.095h-.099s-.05.095 0 .142c0 .047 0 .142.099.142 0 0 .099.047.149.047h.149c0-.047.049-.095.049-.142s0-.095-.099-.142c0 0-.099-.047-.148-.047h-.099z" class="H"/><g class="B"><path d="M62.611 74.473s.148-.142.198-.237c.05-.047.198-.095.198-.095.099 0-.099-.095-.198-.095-.05 0-.099 0-.148.047h-.099v.237.095l.05.047z" class="C F"/><path d="M62.465 74.617l-.099-.05.099.05z"/></g><path d="M62.561 74.33h.05v.189h-.099-.05v-.142l.099-.047zm0-.095s-.099 0-.149.095a.17.17 0 0 0 0 .284s.099.047.149.047.099 0 .148-.047c.099-.095.099-.19.05-.284 0 0-.099-.047-.149-.047l-.05-.047z" class="H"/><g class="C E"><use href="#V" class="G"/><path d="M60.482 80.082v24.894m.594-24.894v24.894"/></g><use href="#W" class="D"/><use href="#W" class="C E"/><use href="#X" class="D"/><g class="C E"><use href="#X"/><g class="D"><path d="M56.618 92.529c-1.486-.094-2.477-.472-2.625-1.085-.099-.471.396-.99 1.288-1.462.396 0 .842.094 1.338.094v2.452z"/></g></g><use href="#Y" class="D"/><use href="#Y" class="C E"/><use href="#Z" class="D"/><use href="#Z" class="C E"/><g class="B"><path d="M56.271 88.191c.644-.236 1.09-.519.892-.99-.149-.33-.495-.377-.99-.189l-.892.33.793 1.886s.198-.094.248-.094c.099 0 .198-.047.297-.094l-.347-.849zm-.396-.943l.198-.094s.396 0 .495.236c.05.141 0 .377-.148.472-.05 0-.149.094-.248.094l-.297-.754m2.476-.708s-.198 0-.297.047h-.297l.446 1.98 1.436-.283v-.141-.142c-.248.094-.545.142-.842.189l-.396-1.745m2.873 1.792c.248-.707.594-1.414.941-2.074h-.198-.198l-.594 1.508c-.248-.472-.594-.943-.792-1.414h-.347-.347l1.189 1.933h.297m3.021-1.462l.149-.283c-.099-.047-.297-.189-.594-.189-.594-.047-.941.189-.991.519-.099.707 1.09.66 1.04 1.132 0 .189-.248.283-.496.283a.53.53 0 0 1-.495-.377h-.05l-.148.377a1.26 1.26 0 0 0 .594.189c.594.047 1.04-.189 1.09-.566.099-.66-1.09-.707-1.04-1.131 0-.189.148-.283.446-.236a.43.43 0 0 1 .396.283h.05"/></g><g class="C E"><path d="M64.444 108.845c-.495 0-.941-.095-1.288-.285s-.793-.237-1.288-.237-.941.095-1.288.237c-.347.19-.793.285-1.288.285s-.99-.095-1.288-.285a3.18 3.18 0 0 0-1.238-.237c-.495 0-.941.095-1.288.237-.347.19-.793.285-1.288.285v.758c.495 0 .941-.095 1.288-.285.347-.142.793-.236 1.288-.236s.892.094 1.238.236c.347.19.792.285 1.288.285s.941-.095 1.288-.285c.347-.142.793-.284 1.288-.284s.941.095 1.288.284.793.285 1.288.285v-.758z" class="I"/><path d="M64.444 109.646c-.495 0-.941-.094-1.288-.284-.347-.142-.793-.284-1.288-.284s-.941.094-1.288.284-.793.284-1.288.284-.99-.094-1.288-.284a3.18 3.18 0 0 0-1.238-.237c-.495 0-.941.095-1.288.237-.347.19-.793.284-1.288.284v.758c.495 0 .941-.095 1.288-.284.347-.142.793-.237 1.288-.237a3.18 3.18 0 0 1 1.238.237c.347.189.792.284 1.288.284s.941-.095 1.288-.284.793-.237 1.288-.237.941.095 1.288.237c.347.189.793.284 1.288.284v-.758z" class="G"/><path d="M64.444 110.353c-.495 0-.941-.094-1.288-.284s-.793-.237-1.288-.237-.941.095-1.288.237c-.347.19-.793.284-1.288.284s-.99-.094-1.288-.284a3.18 3.18 0 0 0-1.238-.237c-.495 0-.941.095-1.288.237-.347.19-.793.284-1.288.284v.759c.495 0 .941-.095 1.288-.285.347-.142.793-.237 1.288-.237a3.18 3.18 0 0 1 1.238.237c.347.19.792.285 1.288.285s.941-.095 1.288-.285.793-.237 1.288-.237.941.095 1.288.237c.347.19.793.285 1.288.285v-.759z" class="I"/><path d="M64.444 111.866c-.495 0-.941-.095-1.288-.285-.347-.142-.793-.236-1.288-.236s-.941.094-1.288.236-.793.285-1.288.285-.99-.095-1.288-.285c-.347-.142-.743-.236-1.238-.236s-.941.094-1.288.236c-.347.19-.793.285-1.288.285v-.758c.495 0 .941-.142 1.288-.284s.793-.238 1.288-.238.892.095 1.238.238c.347.189.792.284 1.288.284s.941-.095 1.288-.284.793-.238 1.288-.238.941.095 1.288.238c.347.189.793.284 1.288.284v.758z" class="G"/><path d="M64.444 112.62c-.495 0-.941-.095-1.288-.284s-.793-.284-1.288-.284-.941.094-1.288.284c-.347.142-.793.284-1.288.284s-.99-.095-1.288-.284a3.18 3.18 0 0 0-1.238-.237c-.495 0-.941.095-1.288.237-.347.189-.793.284-1.288.284v-.758c.495 0 .941-.095 1.288-.284s.793-.237 1.288-.237.892.094 1.238.237c.347.189.792.284 1.288.284s.941-.095 1.288-.284.793-.237 1.288-.237.941.094 1.288.237c.347.189.793.284 1.288.284v.758z" class="I"/></g><path d="M56.469 105.777v.19c0 .473-.446.852-.941.852h7.529c-.495 0-.941-.379-.941-.852v-.19h-.148-5.498-.149z" class="B"/><g class="C E"><path d="M56.469 105.777v.19c0 .473-.446.852-.941.852h7.529c-.495 0-.941-.379-.941-.852v-.19h-.148-5.498zm0 0h-.149"/><g class="B"><use href="#a"/><path d="M55.577 108.615h7.529v-1.848h-7.529v1.848z"/><use href="#b"/><path d="M56.421 79.284h.148 5.499.149a.46.46 0 0 1-.347-.427c0-.189.149-.332.347-.426h-.149-5.498-.148s.297.237.297.426-.149.379-.297.427z"/><path d="M56.569 79.28h5.499s.346.095.346.237-.148.237-.346.237h-5.499s-.347-.095-.347-.237.149-.237.347-.237zm0-1.226h5.499s.346.095.346.189-.148.19-.346.19h-5.499s-.347-.095-.347-.19.149-.189.347-.189zm48.148.009h7.331v-1.848h-7.331v1.848z"/></g></g><use href="#c" class="B"/><g class="C E"><use href="#c"/><g class="B"><path d="M105.658 79.28h5.498s.347.095.347.237-.149.237-.347.237h-5.498s-.347-.095-.347-.237.148-.237.347-.237zm0-1.226h5.498s.347.095.347.189-.149.19-.347.19h-5.498s-.347-.095-.347-.19.148-.189.347-.189z"/></g><path d="M103.28 108.845c.495 0 .941-.095 1.288-.285s.793-.237 1.288-.237a3.45 3.45 0 0 1 1.288.237c.347.19.793.285 1.288.285s.991-.095 1.288-.285c.347-.142.792-.237 1.238-.237.496 0 .941.095 1.288.237.347.19.792.285 1.288.285v.758c-.496 0-.991-.095-1.288-.285-.347-.142-.743-.236-1.288-.236-.495 0-.941.094-1.238.236-.347.19-.793.285-1.288.285s-.941-.095-1.288-.285c-.347-.142-.793-.284-1.288-.284s-.941.095-1.288.284-.793.285-1.288.285v-.758z" class="I"/><path d="M103.28 109.646c.495 0 .941-.094 1.288-.284.347-.142.793-.284 1.288-.284s.941.094 1.288.284.793.284 1.288.284.991-.094 1.288-.284c.347-.142.792-.237 1.238-.237.496 0 .941.095 1.288.237.347.19.792.284 1.288.284v.758c-.496 0-.991-.095-1.288-.284a3.26 3.26 0 0 0-1.288-.237c-.495 0-.941.095-1.238.237-.347.189-.793.284-1.288.284s-.941-.095-1.288-.284-.793-.237-1.288-.237a3.45 3.45 0 0 0-1.288.237c-.347.189-.793.284-1.288.284v-.758z" class="G"/><path d="M103.28 110.353c.495 0 .941-.094 1.288-.284s.793-.237 1.288-.237a3.45 3.45 0 0 1 1.288.237c.347.19.793.284 1.288.284s.991-.094 1.288-.284c.347-.142.792-.237 1.238-.237.496 0 .941.095 1.288.237.347.19.792.284 1.288.284v.759c-.496 0-.991-.095-1.288-.285a3.26 3.26 0 0 0-1.288-.237c-.495 0-.941.095-1.238.237-.347.19-.793.285-1.288.285s-.941-.095-1.288-.285-.793-.237-1.288-.237a3.45 3.45 0 0 0-1.288.237c-.347.19-.793.285-1.288.285v-.759z" class="I"/><path d="M103.28 111.866c.495 0 .941-.095 1.288-.285.347-.142.793-.236 1.288-.236s.941.094 1.288.236.793.285 1.288.285.991-.095 1.288-.285c.347-.142.792-.236 1.238-.236.496 0 .941.094 1.288.236.347.19.792.285 1.288.285v-.758c-.496 0-.991-.142-1.288-.284-.347-.143-.743-.238-1.288-.238-.495 0-.941.095-1.238.238-.347.189-.793.284-1.288.284s-.941-.095-1.288-.284-.793-.238-1.288-.238a3.43 3.43 0 0 0-1.288.238c-.347.189-.793.284-1.288.284v.758z" class="G"/><path d="M103.28 112.62c.495 0 .941-.095 1.288-.284s.793-.284 1.288-.284.941.094 1.288.284c.347.142.793.284 1.288.284s.991-.095 1.288-.284c.347-.142.792-.237 1.238-.237.496 0 .941.095 1.288.237.347.189.792.284 1.288.284v-.758c-.496 0-.991-.095-1.288-.284-.347-.19-.743-.237-1.288-.237-.495 0-.941.094-1.238.237-.347.189-.793.284-1.288.284s-.941-.095-1.288-.284-.793-.237-1.288-.237a3.43 3.43 0 0 0-1.288.237c-.347.189-.793.284-1.288.284v.758z" class="I"/></g><path d="M111.305 105.777v.19c0 .473.396.805.941.805h-7.529c.495 0 .941-.379.941-.805v-.19h.149 5.498.149z" class="B"/><g class="C E"><path d="M111.305 105.777v.19c0 .473.396.805.941.805h-7.529c.495 0 .941-.379.941-.805v-.19h.149 5.498zm0 0h.149"/><g class="B"><path d="M105.658 105.306h5.498s.347.095.347.237-.149.237-.347.237h-5.498s-.347-.142-.347-.237c0-.142.148-.237.347-.237zm-.993 3.309h7.53v-1.848h-7.53v1.848z"/></g></g><use href="#d" class="D"/><g class="C E"><use href="#d"/><path d="M105.756 104.976h5.35V80.034h-5.35v24.942z" class="G"/><path d="M109.619 80.034v24.895m.595-24.895v24.895"/></g><use href="#e" class="D"/><g class="C E"><use href="#e"/><g class="D"><path d="M111.105 92.529c1.486-.094 2.477-.472 2.626-1.085.099-.471-.397-.99-1.288-1.462-.397 0-.842.094-1.338.094v2.452z"/></g></g><use href="#f" class="D"/><use href="#f" class="C E"/><use href="#g" class="D"/><use href="#g" class="C E"/><g class="B"><path d="M103.626 88.285c.198-.754.446-1.414.693-2.169h-.198-.198c-.099.519-.297 1.037-.446 1.556l-.941-1.367c-.099 0-.198 0-.347.047h-.347l1.388 1.839h.346m2.08-2.028h-.297-.297v2.027h1.436v-.141-.142h-.891v-1.791m2.378.378l.694.094v-.142-.141l-1.982-.142v.142.141h.744l-.199 1.792h.298.297l.198-1.792m.742 2.028h.297c.099 0 .199.047.298.094l.247-.943s.149.283.149.377l.297.707s.248 0 .347.047c.099 0 .247.047.346.094l-.098-.188-.446-.943c.396 0 .644-.094.743-.377 0-.189 0-.33-.248-.471-.149-.094-.396-.141-.595-.189l-.792-.189-.495 1.981m1.04-1.698s.545.094.545.33v.142c-.099.283-.297.377-.694.283l.198-.755m2.676 2.264l-.099.66c.099 0 .198.094.297.142l.297.141.198-2.263s-.099 0-.148-.047c0 0-.099 0-.099-.094l-2.081 1.273a.73.73 0 0 0 .149.094c.049 0 .099.047.148.094a6.28 6.28 0 0 1 .595-.377l.792.424-.049-.047zm-.595-.519l.694-.424-.099.754-.595-.33z"/></g><g class="C E"><path d="M83.961 113.133c-4.309 0-8.57-.99-12.136-2.688-2.675-1.226-4.409-3.772-4.409-6.648V93.378h33.04v10.42c0 2.876-1.734 5.375-4.409 6.648-3.566 1.698-7.777 2.688-12.086 2.688z" class="G"/><path d="M84.754 108.512v-.236c0-.094.099-.235.099-.235s-.149 0-.297.094c-.099 0-.248.141-.248.141s0-.094-.099-.188c-.05-.095-.198-.189-.198-.189s-.149.047-.198.142c-.099.094-.198.235-.198.235s-.099-.094-.248-.141-.396 0-.396 0l.198.188c0 .095.099.189.099.189-.694 0-1.04.66-1.04 1.226 0 .754.793 1.32 1.784 1.32s1.734-.566 1.734-1.32c0-.566-.347-1.037-1.04-1.273l.05.047z" fill="#ffd691"/><g class="J"><path d="M82.028 110.916c-.743-.142-1.535 0-1.882 0 0 0 .446.285.594.474a3.63 3.63 0 0 0 1.139.616c1.04.237 2.031-.047 2.031-.047s-1.338-.853-1.882-.948v-.095zm3.963.095c-.892.142-1.734.948-1.734.948h.297l1.635.047c.694 0 1.189-.379 1.387-.521s.545-.284.495-.284c-.396-.095-1.09-.332-2.13-.19h.05z"/></g><path d="M84.011 108.607a1.5 1.5 0 0 0-.545 1.178 1.5 1.5 0 0 0 .545 1.179 1.5 1.5 0 0 0 .545-1.179c0-.471-.198-.848-.545-1.178z" class="D"/><path d="M84.11 111.058h-.248a2.56 2.56 0 0 0 0 .664c0 .426-.198.9-.198.9s.198-.047.248-.095c.05 0 .248-.047.248-.047l.05-.758c0-.332-.149-.664-.149-.664h.05z" class="J"/><path d="M83.863 75.932H67.368v27.912c0 4.102 3.715 7.45 8.272 7.45s8.272-3.348 8.272-7.45V75.932h-.05z" class="D"/><g class="B"><path d="M83.912 93.378h-1.833v15.135c1.139-1.273 1.833-2.923 1.833-4.715V93.33v.047zm-12.879 0v16.644c.594.33 1.189.613 1.833.849V93.378h-1.833zm-3.665 0v10.466c0 1.792.693 3.395 1.833 4.668V93.378h-1.833zm10.997 0v17.493a7.93 7.93 0 0 0 1.833-.802V93.425h-1.833v-.047zm-3.667 0v17.87c.297 0 .594.047.941.047h.892v-17.87h-1.833v-.047z"/></g><path d="M82.029 93.378h-12.83"/><path d="M83.862 93.377h16.544V75.932H83.862v17.445z" class="G"/><path d="M100.456 93.378v10.466c0 4.102-3.715 7.45-8.273 7.45s-8.272-3.348-8.272-7.45V93.378h16.545z" class="D"/></g><use href="#h" class="B"/><g class="C F"><use href="#h"/><g class="B"><path d="M94.214 108.135a3.68 3.68 0 0 1-1.238.33.82.82 0 0 0-.545-.424v-2.169h-.545v2.169s-.446.235-.545.424c-.446-.047-.941-.189-1.337-.33l-.297.471a8.09 8.09 0 0 0 1.536.425c.099.377.446.613.892.613a.9.9 0 0 0 .892-.66c.495-.095 1.04-.189 1.486-.378l-.297-.471zm-2.081 1.037s-.396-.141-.396-.33.198-.33.396-.33.396.141.396.33-.198.33-.396.33zm5.301-3.347c.248-.472.396-.991.446-1.556h-.545c0 .471-.149.942-.347 1.32-.149 0-.347 0-.496.047l-1.387-1.462-.446.33 1.387 1.462a.75.75 0 0 0 0 .896 4.43 4.43 0 0 1-1.04.848l.248.472a5.07 5.07 0 0 0 1.238-.99c.297.094.595 0 .842-.142.396-.283.396-.801.099-1.131v-.094zm-.396.848s-.397.094-.545 0c-.149-.141-.099-.377 0-.471.149-.142.397-.095.545 0 .149.141.099.377 0 .471zm1.436-5.233c0-.377-.248-.661-.644-.802v-1.697h-.545v1.744c-.248.095-.495.283-.594.519h-1.486v.519h1.536a.96.96 0 0 0 .545.518v1.273h.545v-1.273c.347-.094.644-.424.644-.754v-.047zm-.892.33s-.396-.142-.396-.33.198-.33.396-.33.396.141.396.33-.149.33-.396.33zm.051-6.931c-.396 0-.743.236-.842.566h-1.536v.519h1.536v.094l-2.08 2.263.446.33 2.08-2.216h.148v1.697h.545v-1.697c.347-.094.644-.425.644-.755 0-.472-.397-.801-.892-.801h-.049zm0 1.179s-.396-.142-.396-.33.198-.33.396-.33.396.141.396.33-.198.33-.396.33zm-4.706-.613c-.099-.33-.446-.566-.842-.566s-.743.236-.842.566h-1.387v.519h1.387c.099.236.297.424.594.519v1.037h.545v-1.037a.96.96 0 0 0 .545-.519h1.387v-.519h-1.387zm-.842.613s-.396-.142-.396-.33.198-.33.396-.33.396.141.396.33-.198.33-.396.33zm-4.756.047s.05-.142.099-.189h1.486v-.519h-1.486c-.149-.33-.446-.566-.842-.566-.495 0-.892.377-.892.801 0 .33.248.66.594.755v1.697h.545v-1.697h.099l2.08 2.216.446-.33-2.08-2.216-.05.047zm-.743-.094s-.396-.142-.396-.33.198-.33.396-.33.396.142.396.33-.198.33-.396.33zm.842 5.186c-.099-.236-.297-.425-.594-.519v-1.745h-.545v1.697c-.347.094-.644.424-.644.802s.248.659.644.754v1.273h.545v-1.273c.248-.095.495-.283.545-.519h1.486v-.518h-1.486l.05.047zm-.842.613s-.396-.142-.396-.33.148-.33.396-.33.396.141.396.33-.198.33-.396.33zm1.486 5.092c.198-.283.248-.613 0-.896l1.387-1.462-.446-.33-1.436 1.462s-.297-.047-.495-.047c-.198-.425-.297-.849-.347-1.32h-.545c0 .565.198 1.084.446 1.556-.347.377-.297.895.099 1.178a.9.9 0 0 0 .842.142c.347.377.792.754 1.238.99l.297-.472c-.396-.236-.743-.518-1.09-.849l.05.048zm-.446-.236s-.396.189-.545 0c-.149-.141-.198-.33 0-.471.149-.142.396-.189.545 0 .149.141.198.33 0 .471z"/><path d="M86.388 104.749l-.594-.142-.099-1.422.594-.189v.805c0 .332 0 .616.099.9v.048zm.446-1.753l.594.142v.71c0-.237.049.711.049.711l-.594.19c-.05-.285-.099-.569-.099-.853v-.853l.05-.047zm-.545-5.328l-.594.142v1.421l.594.142v-1.706zm.545 0l.594.142v1.421l-.594.142v-1.706zm3.516-1.792l-.198.521h-1.536l-.149-.521h1.882zm0-.469l-.198-.521h-1.536l-.149.521h1.882zm-1.634 12.022c.495.379 1.04.663 1.684.853l.149-.521a4.62 4.62 0 0 1-1.387-.664l-.446.332zm-.247.47a5.35 5.35 0 0 0 1.635.853l-.446.379c-.495-.19-.941-.379-1.337-.663l.148-.569zm.743-3.058l.545.237 1.04-1.09-.347-.427-1.238 1.28zm-.447-.329l-.297-.474.991-1.042.545.189-1.238 1.327zm9.016.237l.594-.142.099-1.422-.594-.189v.805c0 .332 0 .616-.099.9v.048z"/></g></g><use href="#i" class="B"/><g class="C F"><use href="#i"/><g class="B"><path d="M95.403 107.429a5.35 5.35 0 0 1-1.635.853l-.148-.521a4.62 4.62 0 0 0 1.387-.664l.396.332zm.298.47a5.35 5.35 0 0 1-1.635.853l.446.379c.495-.19.941-.379 1.337-.663l-.148-.569zm1.585-10.231l-.545.142v1.421l.545.142v-1.706zm.595 0l.545.142v1.421l-.545.142v-1.706zm-2.923 7.173l-.594.237-.991-1.09.347-.427 1.238 1.28zm.396-.329l.347-.474-.991-1.042-.594.189 1.238 1.327zm-6.241-6.56l.545-.237.991 1.09-.297.427-1.238-1.279zm-.446.329l-.297.474.99 1.042.545-.237-1.238-1.279zm6.341-.376l-.545-.237-.991 1.09.347.474 1.189-1.326zm.445.329l.297.427-.991 1.09-.545-.189 1.238-1.327zm-6.985 2.925l.149-.521h1.585l.148.521h-1.882zm0 .517l.149.521h1.585l.148-.521h-1.882zm7.232-.517l-.149-.521h-1.585l-.148.521H95.7zm0 .517l-.149.521h-1.585l-.148-.521H95.7zm-3.319 4.628l.594-.189v-1.374l-.594-.19v1.753zm-.544 0l-.594-.189v-1.374l.594-.19v1.753zm0-9.296l-.594.142v1.421l.594.142v-1.706zm.545 0l.594.142v1.421l-.594.142v-1.706zm1.436-1.132l.198.521h1.536l.149-.521h-1.882zm0-.469l.198-.521h1.536l.149.521h-1.882z"/></g><path d="M91.192 101.444c0-.474.397-.806.892-.806s.892.379.892.806-.396.805-.892.805-.892-.379-.892-.805z" class="J"/></g><path d="M73.015 79.987h-.297v-.283h-.545v1.132h.545v.802h-1.139v2.31h.594v4.62h-1.238v2.405h9.362v-2.405h-1.238v-4.62h.594v-2.31h-1.139v-.802h.545v-1.132h-.545v.283h-.297v-.283h-.545v.283h-.396v-.283h-.545v1.132h.545v.802h-1.139v-2.546h.594v-1.179h-.594v.283h-.297v-.283h-.545v.283h-.297v-.283h-.594v1.179h.594v2.546h-1.139v-.802h.545v-1.132h-.545v.283h-.297v-.283h-.594v.283h.05zm-2.031 10.986h9.362zm0-.566h9.362zm0-.566h9.362zm0-.566h9.362zm0-.66h9.362zm1.238-.519h6.935zm0-.566h6.935zm0-.66h6.935zm0-.566h6.935zm0-.566h6.935zm0-.566h6.935zm0-.566h6.935zm-.594-.566h8.123zm0-.566h8.123zm0-.566h8.123zm0-.566h8.123zm1.139-.566h5.845zm2.328-.566h1.139zm0-.566h1.139zm0-.566h1.139zm0-.566h1.139zm-.594-.707h2.378zm-1.734 2.452h1.238zm-.495-.707h2.278zm0 10.656v-.566zm0-1.132v-.566zm-.595 0v.566zm1.139.566v-.566zm.594.613v-.566zm0-1.132v-.566zm0-1.226v-.519zm0-1.084v-.66zm-.594 1.745v-.66zm-1.139 0v-.66zm2.378-.66v.66zm.545 0v-.519zm-1.733-1.084v.566zm1.238 0v.566zm1.139 0v.566zm-.594 0v-.66zm.594-1.226v.566zm0-1.179v.566zm-.594-.613v.566zm.594-.613v.566zm-1.139 0v.566zm-1.238 0v.566zm-.545-.613v.566zm1.14 0v.566zm1.139 0v.566zm.594-.566v.566zm-1.139 0v.566zm-1.238 0v.566zm-.545-.566v.566zm2.278 0v.566zm-1.139-1.179v.566zm5.251 0h-1.189zm.545-.707h-2.278zm0 10.656v-.566zm0-1.132v-.566zm.594 0v.566zm-1.139.566v-.566zm-.594.613v-.566zm0-1.132v-.566zm0-1.226v-.519zm0-1.084v-.66zm.594 1.745v-.66zm1.139 0v-.66zm-2.328-.66v.66zm-.545 0v-.519zm1.734-1.084v.566zm-1.189 0v.566zm-1.139 0v.566zm.595 0v-.66zm-.595-1.226v.566zm0-1.179v.566zm.595-.613v.566zm-.595-.613v.566zm1.139 0v.566zm1.189 0v.566zm.545-.613v.566zm-1.139 0v.566zm-1.139 0v.566zm-.595-.566v.566zm1.139 0v.566zm1.189 0v.566zm.545-.566v.566zm-2.278 0v.566zm1.139-1.179v.566zm-2.377 6.412v-.66zm0-2.405v-.566zm0 1.179v-.566zm0-2.31v-.566zm0-1.132v-.566zm0-1.745v-.566zm0-1.132v-.566zm-2.873.943h1.238zm2.377-1.745h1.139zm2.279 1.745h1.189z" class="B"/><g class="C E"><path d="M70.984 90.973h9.362m-9.362-.566h9.362m-9.362-.566h9.362m-9.362-.566h9.362m-9.362-.66h9.362m-8.123-.519h6.935m-6.935-.566h6.935m-6.935-.66h6.935m-6.935-.566h6.935m-6.935-.566h6.935m-6.935-.566h6.935m-6.935-.566h6.935m-7.529-.566h8.123m-8.123-.566h8.123m-8.123-.566h8.123m-8.123-.566h8.123m-6.984-.566h5.845m-3.517-.566h1.139m-1.139-.566h1.139m-1.139-.566h1.139m-1.139-.566h1.139m-1.734-.707h2.378m-4.111 2.452h1.238m-1.734-.707h2.278m-2.278 10.656v-.566m0-.566v-.566m-.595.566v.566m1.139 0v-.566m.594 1.179v-.566m0-.566v-.566m0-.66v-.519m0-.566v-.66m-.594 2.405v-.66m-1.139.66v-.66m2.378 0v.66m.545-.66v-.519m-1.733-.566v.566m1.238-.566v.566m1.139-.566v.566m-.594-.566v-.66m.594-.566v.566m0-1.744v.566m-.594-1.179v.566m.594-1.179v.566m-1.139-.566v.566m-1.238-.566v.566m-.545-1.179v.566m1.14-.566v.566m1.139-.566v.566m.594-1.132v.566m-1.139-.566v.566m-1.238-.566v.566m-.545-1.132v.566m2.278-.566v.566m-1.139-1.745v.566m5.251-.566h-1.189m1.734-.707h-2.278m2.278 10.656v-.566m0-.566v-.566m.594.566v.566m-1.139 0v-.566m-.594 1.179v-.566m0-.566v-.566m0-.66v-.519m0-.566v-.66m.594 2.405v-.66m1.139.66v-.66m-2.328 0v.66m-.545-.66v-.519m1.734-.566v.566m-1.189-.566v.566m-1.139-.566v.566m.595-.566v-.66m-.595-.566v.566m0-1.744v.566m.595-1.179v.566m-.595-1.179v.566m1.139-.566v.566m1.189-.566v.566m.545-1.179v.566m-1.139-.566v.566m-1.139-.566v.566m-.595-1.132v.566m1.139-.566v.566m1.189-.566v.566m.545-1.132v.566m-2.278-.566v.566m1.139-1.745v.566m-2.377 5.846v-.66m0-1.745v-.566m0 1.745v-.566m0-1.744v-.566m0-.566v-.566m0-1.179v-.566m0-.566v-.566m-2.873 1.509h1.238m1.139-1.745h1.139m1.139 1.745h1.189m-5.647-1.085h-.297v-.283h-.545v1.132h.545v.802h-1.139v2.31h.594v4.62h-1.238v2.405h9.362v-2.405h-1.238v-4.62h.594v-2.31h-1.139v-.802h.545v-1.132h-.545v.283h-.297v-.283h-.545v.283h-.396v-.283h-.545v1.132h.545v.802h-1.139v-2.546h.594v-1.179h-.594v.283h-.297v-.283h-.545v.283h-.297v-.283h-.594v1.179h.594v2.546h-1.139v-.802h.545v-1.132h-.545v.283h-.297v-.283h-.594v.283h.05z"/><g class="B"><path d="M77.223 90.973v-1.509c0-.283-.149-1.179-1.585-1.179-1.387 0-1.535.849-1.535 1.179v1.509h3.121z"/><path d="M74.647 89.516h-.743c0-.379.099-.805.297-.948l.694.521s-.198.284-.198.427h-.05zm2.032 0h.743c0-.379-.099-.805-.297-.948l-.694.521s.198.284.198.427h.05zm-.743-.708l.396-.663s-.446-.142-.693-.142c-.149 0-.446.047-.594.142l.396.663h.545-.05zM74.5 87.012v-1.603c0-.424-.297-.802-.842-.802s-.842.377-.842.802v1.603H74.5zm2.328 0v-1.603c0-.424.297-.802.842-.802s.842.377.842.802v1.603h-1.684zm-.595-3.906l.149-1.469h-1.436l.099 1.469h1.238-.05zm1.14 0l-.148-1.469h1.536l-.149 1.469h-1.189-.05zm-3.418 0l.099-1.469h-1.437l.149 1.469h1.238-.05z"/></g></g><g class="I"><path d="M76.68 90.973v-1.32s-.148-.849-1.04-.849c-.842 0-.991.66-.991.849v1.32h2.031zm-2.378-4.149v-1.367c0-.377-.198-.755-.694-.755s-.694.377-.694.755v1.367h1.387zm2.675 0v-1.367c0-.377.248-.755.694-.755s.694.377.694.755v1.367h-1.387z"/></g><g class="C E"><path d="M78.562 93.331c0-3.159 2.378-5.752 5.35-5.752s5.35 2.546 5.35 5.752-2.378 5.705-5.35 5.705-5.35-2.546-5.35-5.705z" class="D"/><path d="M80.146 93.283c0-2.31 1.684-4.196 3.765-4.196s3.765 1.886 3.765 4.196-1.684 4.196-3.765 4.196-3.765-1.886-3.765-4.196z" class="I"/><g class="B"><path d="M82.872 91.774s-.396.141-.446.283c0 0 .198-.377.198-.801s-.446-.896-.446-.896-.446.472-.446.896.198.801.198.801c-.05-.189-.248-.283-.446-.283-.248 0-.496.189-.496.472 0 .047 0 .189.099.236l.149.283s.198-.189.297-.189a.33.33 0 0 1 .347.33l-.05.377-.248.519.347-.141.248.283.297-.283.346.141-.248-.519v-.377a.33.33 0 0 1 .347-.33c.149 0 .248.047.297.189l.149-.283s.099-.189.099-.236c0-.236-.198-.472-.495-.472h-.099z"/><path d="M81.434 93.332h1.436V93h-1.436v.332zm4.954-1.558s-.396.141-.495.283c0 0 .198-.377.198-.801s-.446-.896-.446-.896-.446.472-.446.896.198.801.198.801c-.049-.189-.248-.283-.446-.283-.248 0-.495.189-.495.472 0 .047 0 .189.099.236l.148.283s.198-.189.347-.189a.33.33 0 0 1 .347.33v.377l-.248.519.347-.141.248.283.248-.283.347.141-.248-.519v-.377a.33.33 0 0 1 .347-.33c.149 0 .248.047.347.189 0 0 .248-.472.248-.566 0-.236-.198-.472-.495-.472l-.148.047z"/><path d="M84.903 93.332h1.436V93h-1.436v.332zm-.298 1.319s-.396.141-.446.283c0 0 .198-.377.198-.802s-.446-.896-.446-.896-.446.472-.446.896.198.802.198.802c-.049-.189-.248-.283-.495-.283s-.495.189-.495.471c0 .047.248.566.248.566 0-.094.198-.189.297-.189a.33.33 0 0 1 .347.33l-.05.424-.248.519.347-.141.248.283.297-.283.347.141-.248-.519v-.424a.33.33 0 0 1 .347-.33c.149 0 .248.047.297.189 0 0 .248-.471.248-.566 0-.236-.198-.471-.495-.471h-.05z"/><path d="M83.169 96.208h1.437v-.332h-1.437v.332z"/></g></g><use href="#j" class="D"/><use href="#j" class="C E"/><use href="#k" class="D"/><g class="C E"><use href="#k"/><path d="M98.276 78.196c-.446.471-.842.519-1.139 1.132-.05-.33-.099-.707-.297-.943 0 .707-.793 1.509-.545 2.64 0 .33-.149.849-.198 1.084 0 .236.099.896.297 1.509s.594 1.933-.446 2.169-1.486-.519-1.833-.943c-.545-.754-.545-1.367-.792-1.839 0 .047.198.141.297.236.149.094.248.283.248.283v-.801c0-.283-.198-.613-.198-.613s.446.283.644.613c.099-.141.149-.566-.148-.99.396.094.694.472.694.472v-.472c-.05-.141-.248-.33-.347-.424a.61.61 0 0 1-.149-.377v-.33a.86.86 0 0 0 .198.142c.099.094.248.189.248.189s0-.189-.099-.283c0-.094 0-.189-.099-.283 0-.094.049-.283 0-.519v-.424s-.297-.471-.693-.754c-.446-.33-.991-.472-.991-.472s-.397.047-.496.142c-.099.047-.099.236-.198.283s-.396.047-.644.094c-.248 0-.396 0-.446.094-.099.047 0 .142 0 .377.05.236.347.236.693.33s.347.283.248.613-.396.283-.644.283-.396 0-.446.141c0 .141.347.283.446.425s-.149.283-.347.33c-.198.094-.693.047-.892.047s-.347.047-.347.047l-.297-.094c-.149 0-.545-.33-.743-.472l-.594-.283c-.149-.094-.297-.33-.396-.471a.53.53 0 0 1 .099-.471c.099-.094.198-.236.198-.33s-.198-.047-.347-.047-.198-.142-.297-.142-.099.189-.099.283 0 .33-.099.377c-.099 0-.248-.283-.396-.377-.099-.047-.198.142-.248.236-.05.047-.148.094-.248.188s.099.189.198.236c.149.047.297.189.297.236s-.297 0-.446 0 0 .236 0 .283v.189c0 .141.099.189.198.189s.297-.094.396-.094.148.142.198.189c.05.094.149.236.198.33.099.094.396.189.396.189h-.347c-.198 0-.446.189-.446.189s.842 0 1.189.189c-.149.094-.644.283-.644.283.892.471.991 0 1.882.943 0 0-.396.283-.545.33a3.01 3.01 0 0 0-.496.33c-.099.047-.545.142-.693.094-.198-.047-.149-.236-.347-.33s-.198.094-.248.142c0 .094-.099.094-.198.188s0 .189.198.236c.198 0 .297.142.248.189 0 .047-.347 0-.396.047-.099 0-.099.094-.05.189v.33c0 .141.198.094.248.047.099 0 .248-.094.297-.047 0 .047-.148.189-.198.283a.47.47 0 0 0 .05.189s.099-.047.248-.047.248.094.248.094.149-.047.198-.189c.05-.094 0-.283 0-.424s.396-.141.644-.188c.248 0 .297-.189.396-.283 0 .189-.099.519-.099.566.446-.283.644-.613.792-.896v.66c.396-.471.991-.707.991-.707s.099.33.198.471c.099.189.446.519.694.66.198.141 1.189.613 1.189.613l-.694.094h-.892c-.446 0-.644.424-.743.519s0 .424 0 .66c-.049.283.148.471.148.471v-.33c0-.047.149-.283.149-.283a1.79 1.79 0 0 0 .099.283v.283.33s.099-.189.149-.236c.05-.094.198-.188.198-.188s-.05.236 0 .33v.33c0 .094-.099.142-.446.189-.347 0-.495 0-.694-.283s0-.377-.198-.424c-.099 0-.198.141-.248.188s-.099.047-.248.189c-.149.094 0 .141.099.236s.149.141.099.236c0 .094-.297 0-.496 0s0 .189 0 .377.05.283.149.33c.099 0 .198-.047.248-.142h.248c.049 0 0 .047 0 .189-.05.094-.099.094-.148.236 0 .142.149.094.248.141.149 0 .198.047.297.094.099 0 .248 0 .148-.236 0-.141.099-.188.198-.236.099 0 .297.094.396.094h.446c.248 0 .347.047.396.094h.297c.049 0 .198-.188.248-.283 0-.094 0-.283-.149-.707-.099-.424-.148-.754-.099-.896.099-.189.297-.094.545-.094h.446c-.248.33-.248 1.32.693 1.886-.149-.283-.099-.707-.099-.707l.446.66v-.707a5.68 5.68 0 0 0 .446.566.45.45 0 0 1 .099.471c-.099.094-.148.189-.346.189s-.248-.141-.446-.047 0 .189 0 .236v.283c0 .094.148.141.248.094s.148-.047.248 0c.099.094 0 .141-.148.189-.149 0-.248.189-.248.283s.198.095.297.142c.05 0 .198.188.248.188.099 0 .099-.189.099-.283s0-.142.148-.142c0 0 0 .047.05.236 0 .141 0 .236.148.236 0 0 .149-.094.347-.142.05 0 .198.094.297.047.198-.047-.099-.377-.099-.377-.099-.141-.05-.377-.05-.424s.198-.566.297-.755.347-.471.396-.566c0-.142 0-.189-.099-.283-.05-.047-.099-.141-.149-.236 0-.094-.247 0-.446-.188-.149-.141-.396-.236-.396-.801s.297-.802.446-.896.743-.094 1.139-.377c.594-.472.545-1.179.545-1.509s-.644-1.65-.694-1.792c0-.189-.248-1.32.198-1.603.941-.519.347-.896 1.288-1.65-.198 0-.446 0-.694.094.198-.33.693-.424.793-1.509l.248.141z" fill="#e686b7" stroke-miterlimit="10"/></g><g class="H"><path d="M92.777 78.856v.095s0 .047.149.047h.149c.099 0 .248.142.297.142 0 0-.099-.19-.297-.332-.099-.095-.347-.095-.347-.095v.142h.149-.099zm-1.386.425s-.05-.142-.05-.19v-.095s.297 0 .297.095-.099.095-.099.095l-.05.095"/></g><use href="#l" class="D"/><use href="#l" class="C E"/><use href="#m" class="D"/><use href="#m" class="C E"/><use href="#n" class="H"/><use href="#n" class="C F"/><use href="#o" class="H"/><use href="#o" class="C F"/><use href="#p" class="H"/><use href="#p" class="C F"/><use href="#q" class="H"/><g class="C"><use href="#q" class="F"/><g class="D E"><path d="M87.428 83.713s-.149-.142-.396-.095c-.248 0-.396.284-.396.284s.198-.047.347 0c.099 0 .198.142.198.142l.149-.142.099-.189z"/></g></g><use href="#r" class="D"/><use href="#r" class="C E"/><use href="#s" class="D"/><g class="C E"><use href="#s"/><g class="D"><path d="M90.053 87.721s-.198-.189-.396-.189c-.248 0-.495.237-.495.237s.297 0 .347.047a.82.82 0 0 1 .148.189s.149-.047.198-.095l.198-.189zm-.742.847s-.297 0-.446.095c-.149.142-.149.426-.149.426s.198-.189.347-.189a1.01 1.01 0 0 1 .347.095s0-.189-.05-.237c0-.095-.049-.19-.049-.19z"/></g></g><use href="#t" class="D"/><use href="#t" class="C E"/><use href="#u" class="D"/><g class="C"><g class="E"><use href="#u"/><g class="D"><path d="M94.164 90.831s-.198.189-.149.379a3.39 3.39 0 0 0 .198.332s0-.237.099-.332c.149-.095.347-.094.347-.094l-.248-.19-.248-.095zm1.041.284s-.099.237.099.379c.198.19.347.19.347.19s-.149-.237-.099-.379c0-.142.198-.237.198-.237s-.248-.095-.297-.047l-.248.095z"/></g></g><path d="M95.204 79.138v-.047h-.099c-.049 0-.049-.141 0-.188h.05v-.142h-.099v.047c-.099.047-.198.094-.297 0 0 0-.05-.094 0-.141h-.149c-.099-.047-.099-.189 0-.236l.099-.094v-.094h-.099s0 .094-.099.142c-.099.094-.198.094-.297 0 0 0-.05-.094 0-.142h-.149c-.099 0-.099-.141 0-.236v-.047-.094h-.148s-.198.141-.248.094v-.094c-.198 0-.248-.33-.248-.424v.094.424c0 .189-.099.377-.099.377.248.047.594.236.99.519.347.283.644.566.743.755 0 0 .198-.094.396-.142s.446-.047.446-.047h.05s-.545 0-.495-.188l-.248-.094z" class="B F K"/></g><g class="H"><path d="M93.868 78.384s0 0 .099 0v.05h-.099v-.05z"/><path d="M94.156 78.656l-.091-.087v-.043h.046l.091.087.091.087h-.045l-.091-.087m-.595-.331h-.091v-.087h.045.091l.091.087v.043h-.136m-.289-.271h.099v.05h-.099v-.05zm1.238.804v-.05h-.099v.05h.099zm.19.226h.046s0 .087.045.087v-.043h-.045l-.091-.13h-.045v.043h.045m.351.289v-.05h-.099v.05h.099z"/></g><g class="B C F"><path d="M94.116 77.441h-.198l-.05.284.05.047h.049l.248-.19-.099-.142z"/><path d="M93.917 77.725l-.149-.237-.198.095v.19l.297.047.05-.047v-.047z"/><path d="M93.918 77.724h-.05v.047l.198.237.149-.095v-.142l-.297-.047z"/></g><path d="M93.867 77.915l-.05-.049.099.049h-.05z" class="B"/><path d="M93.917 77.677s.049.095 0 .142h-.099s-.05-.095 0-.142h.099zm0-.095s-.099 0-.149.047c-.049.095 0 .19.05.237h.099c.049 0 .148 0 .148-.095v-.142s0-.095-.099-.095h-.099l.05.047z" class="H"/><g class="B C F"><path d="M93.174 77.111h-.297l.149.142a.57.57 0 0 0 .099.237l.049-.047s.149-.19 0-.284v-.047z"/><path d="M93.421 77.394h-.297v.047h-.05l.248.189.148-.095-.05-.142z"/></g><path d="M93.124 77.348s.049.047 0 .095c0 0 0 .047-.099.047v-.095s0-.047.099-.047zm0-.094s-.148 0-.148.094v.142s0 .047.099.047c.05 0 .149 0 .149-.142 0-.095 0-.142-.099-.189v.047z" class="H"/><g class="B C F"><path d="M94.858 77.866h-.198l-.099.284.049.047h.049l.248-.142-.049-.189z"/><path d="M94.462 77.913l-.149.047-.049.19.297.047h.049v-.047l-.148-.237z"/><path d="M94.61 78.149h-.049v.047l.148.237.149-.047.049-.19-.297-.047z"/></g><path d="M94.61 78.102h.05v.142h-.05s0 0-.049 0v-.142s0 0 .049 0zm0-.095s-.099 0-.148.047v.142c0 .047 0 .095.049.142h.099c.05 0 .099 0 .149-.047v-.095s0-.095-.049-.095h-.099v-.095z" class="H"/><g class="B C F"><path d="M95.501 78.478l-.198-.047-.099.237v.047h.05l.297-.095-.049-.142z"/><path d="M95.204 78.667l-.049.047v.047l.099.237.198-.047.05-.142-.297-.142z"/><path d="M95.156 78.431l-.198.047-.05.142.248.142h.049l.05-.047-.099-.284z"/></g><path d="M95.205 78.858l-.099-.05.099.05z" class="B"/><path d="M95.204 78.62h.049v.142h-.049c-.05 0 0 0-.049 0v-.142h.099m0-.095h-.148c-.05.047-.05.142 0 .237 0 0 .099.047.148.047s.099 0 .149-.047c0 0 .05-.047.05-.095s0-.095-.05-.142c0 0-.05-.047-.099-.047l-.05.047z" class="H"/><g class="B C F"><path d="M96.046 79.186l-.297.095v.047h.248a.74.74 0 0 1 .198.095s0-.142-.099-.237h-.05z"/><path d="M95.701 79.044h-.149l-.099.142.248.189v-.047h.05l-.05-.284z"/></g><path d="M95.65 79.424l-.05-.05.099.05h-.049z" class="B"/><path d="M95.749 79.234h.05s0 .095-.05.095h-.05v-.095h.05zm0-.095h-.099c-.049 0-.099.095-.099.142v.094s.05.047.099.047h.099s.099-.047.099-.095v-.095s-.049-.047-.148-.047l.05-.047z" class="H"/><g class="C E"><path d="M90.053 81.543s-.248.094-.347.189c-.149.141-.099.33-.099.33s.248-.188.545-.094.297.094.446.094.446-.094.446-.094-.248.283-.198.471c0 .189.049.283 0 .377 0 .236-.248.566-.248.566s.198-.047.396-.189c.248 0 .446-.141.594-.236s.297-.33.297-.33v.424c.05.142.099.519.099.519s.149-.141.297-.189c.05 0 .248-.189.396-.613.099.424.347 1.037.347 1.037s.099-.283.198-.377.198-.613.198-.613l.149.283m-3.765.189c.248-.189.743-.66 1.04-.754m.346 1.603l.446-.236c.198-.141.396-.33.396-.33m1.092 2.358s.694.379.644.711c0 .332-.396.758-.396.758"/></g><path fill-rule="evenodd" d="M244.792 5.219H5.208v156.562h239.584V5.219zM0 0v167h250V0H0z" fill="#dcdfe9"/></g><defs><clipPath id="A"><path d="M0 0h250v167H0z" class="G"/></clipPath><path id="B" d="M83.862 67.869h.396s-.099.377-.099.566c0 .801.743 1.462 1.635 1.462.693 0 1.337-.424 1.535-.99 0 0 .148-.519.198-.519s0 .566.099.566c.099.754.793 1.226 1.585 1.226.892 0 1.585-.66 1.585-1.462v-.189l.495-.471.297.613s-.148.424-.148.613c0 .754.693 1.367 1.535 1.367.545 0 1.04-.236 1.288-.613l.346-.377v.472c0 .472.198.896.694.99 0 0 .545 0 1.338-.519.743-.566 1.189-1.037 1.189-1.037v.566s-.545.943-1.238 1.273c-.347.189-.941.424-1.387.377a1.28 1.28 0 0 1-.99-.849c-.347.189-.743.283-1.139.283-.941 0-1.783-.472-2.08-1.226-.446.424-1.04.707-1.734.707-.743 0-1.436-.33-1.833-.801-.396.377-.991.566-1.585.566-.792 0-1.536-.377-1.932-.943-.396.566-1.139.943-1.932.943a2.57 2.57 0 0 1-1.585-.566c-.446.471-1.09.801-1.833.801-.694 0-1.288-.283-1.734-.707-.347.707-1.139 1.226-2.08 1.226-.446 0-.842-.142-1.139-.283-.198.424-.545.801-.991.849s-1.04-.141-1.387-.377c-.693-.377-1.288-1.273-1.288-1.273v-.566a16.32 16.32 0 0 0 1.238 1.037c.743.566 1.338.519 1.338.519.495-.094.694-.518.694-.99v-.472l.346.377c.248.377.743.613 1.288.613.842 0 1.535-.613 1.535-1.367 0-.236 0-.424-.148-.613l.248-.613.495.471v.189c0 .802.743 1.462 1.635 1.462.793 0 1.486-.472 1.585-1.226 0 0 0-.566.049-.566s.198.519.198.519c.198.566.842.99 1.535.99.892 0 1.635-.66 1.635-1.462 0-.189 0-.33-.099-.519h.446"/><path id="C" d="M99.514 66.314c.496-.519.793-1.179.793-1.933 0-.424-.099-.849-.297-1.226-.694-1.367-2.923-2.358-5.499-2.358-.694 0-1.387.095-2.031.189.149.142.248.283.347.471a9.72 9.72 0 0 1 1.684-.141c2.378 0 4.409.896 4.953 2.075a2.26 2.26 0 0 1 .248.99c0 .754-.347 1.367-.941 1.839l.842 1.367.397-.424-.545-.801"/><path id="D" d="M68.061 66.314l-.545.802.396.424.842-1.368c-.545-.471-.891-1.084-.891-1.839 0-.377.099-.707.248-.99.594-1.179 2.576-2.075 4.953-2.075a9.72 9.72 0 0 1 1.684.141c.099-.141.198-.33.346-.471-.644-.141-1.337-.189-2.031-.189-2.625 0-4.805.99-5.498 2.358a2.64 2.64 0 0 0-.297 1.226c0 .754.297 1.415.792 1.933"/><path id="E" d="M66.624 67.542s.149-.332.347-.332.347.142.347.332-.149.331-.347.331-.347-.142-.347-.331z"/><path id="F" d="M66.129 66.693s.149-.331.347-.331.347.142.347.331-.149.332-.347.332-.347-.142-.347-.332z"/><path id="G" d="M65.782 65.75s.148-.332.347-.332.347.142.347.332-.149.332-.347.332-.347-.142-.347-.332z"/><path id="H" d="M66.574 62.732s.149-.332.347-.332.347.142.347.332-.149.332-.347.332-.347-.142-.347-.332z"/><path id="I" d="M100.605 67.826s-.347-.142-.347-.332.149-.332.347-.332.347.142.347.332-.149.332-.347.332z"/><path id="J" d="M99.069 61.696s-.347-.142-.347-.331.149-.332.347-.332.347.142.347.332-.149.331-.347.331z"/><path id="K" d="M93.323 61.176s-.149.332-.347.332-.347-.142-.347-.332.149-.332.347-.332.347.142.347.332z"/><path id="L" d="M93.571 63.157s-.149.332-.347.332-.347-.142-.347-.332.149-.331.347-.331.347.142.347.331z"/><path id="M" d="M98.623 69.521s-.545-.142-.792.095c-.248.189-.347.521-.149.663.149.189.495.142.793-.095.248-.19.347-.521.198-.663"/><path id="N" d="M108.381 74.241s-.248.237-.446.284c-.198 0-.396-.142-.396-.142s-.148.142-.347.19c-.198 0-.446-.19-.446-.19s-.198.237-.346.332c-.198.047-.396-.094-.396-.094s-.1.142-.199.189h-.148l-.199-.142-.198-.237-.198-.095-.099-.332v-.19c0-.189.298-.426.743-.521.248-.047.496-.047.694 0 .198-.142.594-.237 1.04-.237s.793.095.991.189c.198-.142.594-.189.99-.189.496 0 .842.095 1.041.237.198-.047.396-.047.693 0 .446.095.793.332.743.521v.19l-.099.332-.198.095-.248.237-.198.142h-.149c-.148-.047-.198-.189-.198-.189s-.198.142-.346.094c-.199-.047-.347-.332-.347-.332s-.248.237-.446.19c-.198 0-.347-.19-.347-.19s-.247.19-.396.142c-.198 0-.446-.284-.446-.284"/><path id="O" d="M106.053 75.464l-.198-.332c.644-.19 1.535-.284 2.526-.284s1.883.095 2.526.284l-.198.284c-.049.095-.148.237-.148.237-.595-.189-1.338-.237-2.229-.237s-1.784.095-2.279.284c0 0 0-.095-.099-.237"/><path id="P" d="M107.44 75.131s.049-.142.148-.142.149.048.149.142-.05.142-.149.142-.148-.047-.148-.142z"/><path id="Q" d="M110.363 73.198s.049-.142.148-.142.149.047.149.142-.05.142-.149.142-.148-.047-.148-.142z"/><path id="R" d="M105.161 74.617l-.099-.05.099.05z"/><path id="S" d="M56.965 75.464l-.198-.332c.644-.19 1.535-.284 2.526-.284a11.89 11.89 0 0 1 2.526.284l-.198.284c-.05.095-.149.237-.099.237-.594-.189-1.337-.237-2.229-.284-.941 0-1.783.095-2.278.284 0 0 0-.095-.099-.189"/><path id="T" d="M57.708 75.321h-.198s-.099 0-.149-.047c0 0 0-.095.099-.095h.248l.248-.095c.05 0 .099 0 .148.095 0 .047 0 .095-.099.095h-.248"/><path id="U" d="M57.46 74.047s.05-.142.149-.142.148.047.148.142-.049.142-.148.142-.149-.048-.149-.142z"/><path id="V" d="M56.667 104.976h5.35V80.034h-5.35v24.942z"/><path id="W" d="M54.983 98.846c-.743.424-1.238.849-1.189 1.037 0 .188.248.33.594.566.545.33.842.99.594 1.273.446-.33.694-.849.694-1.415s-.297-1.132-.743-1.462"/><path id="X" d="M67.466 89.369c-1.139-.472-3.12-.801-5.399-.895-.792 0-1.684.094-2.576.236-3.22.519-5.647 1.744-5.449 2.734v.094l-1.238-2.687c-.198-1.084 2.477-2.452 6.043-3.017 1.09-.189 2.18-.236 3.121-.236 2.279 0 4.26.283 5.449.707v3.065"/><path id="Y" d="M62.018 90.595c.941.141 1.635.377 1.981.613.149.377-.644 1.084-2.031 1.839v-2.452"/><path id="Z" d="M53.298 97.338c-.149-.377 1.288-1.226 3.368-1.933l2.675-1.037c2.823-1.179 4.953-2.593 4.706-3.065l.396 2.546c.248.471-1.684 1.792-4.26 3.018-.842.377-2.625.99-3.468 1.273-1.486.471-2.972 1.414-2.823 1.792l-.495-2.546"/><path id="a" d="M56.569 105.306h5.499s.346.095.346.237-.148.237-.346.237h-5.499s-.347-.095-.347-.237.149-.237.347-.237z"/><path id="b" d="M55.677 78.063h7.331v-1.848h-7.331v1.848z"/><path id="c" d="M111.304 79.284h-.149-5.498-.149c.199-.047.298-.237.298-.427s-.149-.332-.347-.426h.149 5.498.149s-.298.237-.298.426.149.379.298.427"/><path id="d" d="M112.789 98.846c.743.424 1.238.849 1.188 1.037 0 .188-.297.33-.594.566-.545.33-.842.99-.594 1.273-.446-.33-.694-.849-.694-1.415s.297-1.132.743-1.462"/><path id="e" d="M100.307 89.369c1.14-.472 3.17-.801 5.449-.895.793 0 1.635.094 2.576.236 3.22.519 5.647 1.744 5.449 2.734v.094l1.238-2.687c.198-1.084-2.477-2.452-6.043-3.017-1.139-.189-2.229-.236-3.17-.236-2.279 0-4.26.283-5.449.707v3.065"/><path id="f" d="M105.755 90.595c-.941.141-1.635.377-1.981.613-.149.377.643 1.084 2.03 1.839v-2.452"/><path id="g" d="M114.425 97.338c.148-.377-1.288-1.226-3.368-1.933l-2.675-1.037c-2.824-1.179-4.954-2.593-4.706-3.065l-.396 2.546c-.248.471 1.684 1.792 4.26 3.018.842.377 2.625.99 3.467 1.273 1.486.471 2.972 1.414 2.823 1.792l.496-2.546"/><path id="h" d="M91.341 101.817s0-.094-.05-.141h-1.436v-.519h1.387s0-.094.05-.141l-1.734-1.839.446-.33 1.684 1.791h.099v-2.404h.545v2.404h.099l1.684-1.791.446.33-1.684 1.791s.099.142.099.189h1.387v.519h-1.387s0 .094-.099.188l1.585 1.697-.446.33-1.585-1.697s0 0-.099 0v2.829h-.545v-2.829h-.05l-1.635 1.745-.446-.33 1.635-1.745"/><path id="i" d="M97.285 102.996l-.594.142v.71c0-.237-.05.711-.05.711l.594.19c.05-.285.099-.569.099-.853v-.853"/><path id="j" d="M86.587 80.553s-.248 0-.396.19c-.149.142-.099.426-.099.426s.149-.189.297-.189h.396s-.05-.189-.05-.237-.099-.237-.099-.237"/><path id="k" d="M92.331 80.228v-.19-.095h-.793c-.297-.095-.545-.189-.792-.379s-.347-.332-.545-.379c-.446-.095-.793.142-.793.142s.347.095.594.426.545.427.644.474c.198.047.892 0 1.04 0a7.09 7.09 0 0 1 .594.047"/><path id="l" d="M87.676 79.235s.149.095.297.142h.248s.049-.189 0-.284c-.05-.379-.446-.474-.446-.474s.099.237.05.332l-.198.284"/><path id="m" d="M86.932 79.564s-.148-.237-.446-.19c-.297 0-.495.237-.495.237h.396c.149.095.148.284.148.284s.198-.095.248-.19c.05-.047.148-.189.148-.189"/><path id="n" d="M91.39 80.491l.091-.174.136.13h-.227"/><path id="o" d="M91.639 80.507l.149-.19.148.142h-.248"/><path id="p" d="M91.539 79.469l.227.087-.227.13v-.174"/><path id="q" d="M91.836 79.563h.227l-.182.174v-.174"/><path id="r" d="M87.13 84.655s-.198 0-.396.095c-.198.142-.198.379-.198.379s.198-.142.297-.095.297.095.297.095v-.189c0-.095-.05-.237-.05-.237"/><path id="s" d="M87.626 85.504s0 .237.099.426a.85.85 0 0 0 .347.19s-.099-.142-.099-.237c0-.142.099-.237.099-.237s-.149-.142-.248-.142h-.248"/><path id="t" d="M89.954 89.511s-.149.189 0 .379c.099.19.347.237.347.237s-.099-.095 0-.237c0-.095.198-.237.198-.237l-.495-.095"/><path id="u" d="M94.065 89.889s-.248-.047-.396 0c-.149.095-.248.426-.248.426s.248-.189.396-.189c.198 0 .297.095.297.095v-.379"/></defs></svg>