<svg xmlns="http://www.w3.org/2000/svg" width="250" height="167" fill="none" xmlns:v="https://vecta.io/nano"><path fill="#fff" d="M0 0h250v167H0z"/><g fill="#e41e26"><path d="M250 3.795H0v12.251h250V3.795zm0 24.551H0v12.251h250V28.346zm0 24.502H0v12.251h250V52.848zm0 24.55H0v12.251h250V77.398z"/><use href="#B"/><use href="#B" y="24.55"/><use href="#B" y="49.052"/></g><path d="M126.676 3.795H0V89.65h126.676V3.795z" fill="#31459c"/><g fill="#fff"><use href="#C"/><use href="#D"/><path d="M52.83 7.385l-1.151 3.398h-3.702l3.002 2.106-1.151 3.398 3.002-2.106 3.052 2.106-1.151-3.398 3.002-2.106h-3.752L52.83 7.385z"/><use href="#E"/><use href="#F"/><path d="M113.969 12.888l-1.151 3.398 3.052-2.106 3.002 2.106-1.15-3.398 3.001-2.106h-3.702l-1.151-3.398-1.15 3.398h-3.753l3.002 2.106zm-92.606 3.111l-1.151 3.398H16.46l3.052 2.106-1.151 3.398 3.002-2.106 3.002 2.106-1.151-3.398 3.002-2.106h-3.702l-1.151-3.398z"/><use href="#D" x="10.506" y="8.614"/><use href="#G"/><path d="M84.349 15.999l-1.151 3.398h-3.752l3.052 2.106-1.151 3.398 3.002-2.106 3.002 2.106-1.151-3.398 3.052-2.106H85.5l-1.151-3.398zm21.012 0l-1.15 3.398h-3.752l3.001 2.106-1.15 3.398 3.051-2.106 3.002 2.106-1.15-3.398 3.002-2.106h-3.703l-1.151-3.398z"/><use href="#C" y="17.228"/><use href="#D" y="17.228"/><use href="#G" x="-10.507" y="8.614"/><use href="#E" y="17.228"/><use href="#F" y="17.228"/><use href="#D" x="84" y="17.228"/><path d="M21.363 33.227l-1.151 3.398H16.46l3.052 2.058-1.151 3.398 3.002-2.058 3.002 2.058-1.151-3.398 3.002-2.058h-3.702l-1.151-3.398z"/><use href="#H"/><use href="#I"/><path d="M84.349 33.227l-1.151 3.398h-3.752l3.052 2.058-1.151 3.398 3.002-2.058 3.002 2.058-1.151-3.398 3.052-2.058H85.5l-1.151-3.398zm21.012 0l-1.15 3.398h-3.752l3.001 2.058-1.15 3.398 3.051-2.058 3.002 2.058-1.15-3.398 3.002-2.058h-3.703l-1.151-3.398zm-94.505 8.614l-1.151 3.398H5.953l3.052 2.058-1.151 3.398 3.002-2.058 3.002 2.058-1.151-3.398 3.052-2.058h-3.752l-1.151-3.398z"/><use href="#H" x="-10.506" y="8.614"/><use href="#I" x="-10.507" y="8.614"/><path d="M73.844 41.841l-1.151 3.398h-3.702l3.002 2.058-1.151 3.398 3.002-2.058 3.002 2.058-1.151-3.398 3.052-2.058h-3.752l-1.151-3.398zm21.013 0l-1.151 3.398h-3.752l3.052 2.058-1.151 3.398 3.002-2.058 3.002 2.058-1.151-3.398 3.002-2.058h-3.702l-1.151-3.398z"/><use href="#H" x="73.494" y="8.614"/><path d="M21.363 50.455l-1.151 3.398H16.46l3.002 2.106-1.151 3.398 3.002-2.106 3.002 2.106-1.151-3.398 3.002-2.106h-3.702l-1.151-3.398h.05z"/><use href="#J"/><use href="#J" x="20.961"/><path d="M84.349 50.455l-1.151 3.398h-3.752l3.002 2.106-1.151 3.398 3.002-2.106 3.002 2.106-1.151-3.398 3.002-2.106H85.4l-1.151-3.398h.1zm21.012 0l-1.15 3.398h-3.752l3.001 2.106-1.15 3.398 3.001-2.106 3.002 2.106-1.151-3.398 3.002-2.106h-3.752l-1.151-3.398h.1z"/><use href="#C" y="51.637"/><use href="#J" x="-10.506" y="8.567"/><use href="#J" x="10.456" y="8.567"/><use href="#J" x="31.468" y="8.567"/><use href="#J" x="52.482" y="8.567"/><use href="#J" x="73.494" y="8.567"/><path d="M22.513 71.033l-1.151-3.398-1.151 3.398H16.46l3.052 2.106-1.151 3.398 3.002-2.106 3.002 2.106-1.151-3.398 3.002-2.106h-3.702z"/><use href="#K"/><path d="M64.487 71.033l-1.151-3.398-1.151 3.398h-3.702l3.002 2.106-1.151 3.398 3.002-2.106 3.052 2.106-1.151-3.398 3.002-2.106h-3.752zm21.013 0l-1.151-3.398-1.151 3.398h-3.752l3.052 2.106-1.151 3.398 3.002-2.106 3.002 2.106-1.151-3.398 3.052-2.106H85.5zm21.012 0l-1.151-3.398-1.15 3.398h-3.752l3.001 2.106-1.15 3.398 3.051-2.106 3.002 2.106-1.15-3.398 3.002-2.106h-3.703zm-94.505 8.614l-1.151-3.398-1.151 3.398H5.953l3.052 2.106-1.151 3.398 3.002-2.106 3.002 2.106-1.151-3.398 3.052-2.106h-3.752z"/><use href="#K" x="-10.507" y="8.614"/><path d="M53.981 79.647L52.83 76.25l-1.151 3.398h-3.702l3.002 2.106-1.151 3.398 3.002-2.106 3.052 2.106-1.151-3.398 3.002-2.106h-3.752zm21.014 0l-1.151-3.398-1.151 3.398h-3.702l3.002 2.106-1.151 3.398 3.002-2.106 3.002 2.106-1.151-3.398 3.052-2.106h-3.752zm21.013 0l-1.151-3.398-1.151 3.398h-3.752l3.052 2.106-1.151 3.398 3.002-2.106 3.002 2.106-1.151-3.398 3.002-2.106h-3.702z"/><use href="#K" x="73.494" y="8.614"/></g><path fill-rule="evenodd" d="M244.792 5.219H5.208v156.562h239.584V5.219zM0 0v167h250V0H0z" fill="#dcdfe9"/><defs ><path id="B" d="M250 101.901H0v12.251h250v-12.251z"/><path id="C" d="M10.856 7.385l-1.151 3.398H5.953l3.052 2.106-1.151 3.398 3.002-2.106 3.002 2.106-1.151-3.398 3.052-2.106h-3.752l-1.151-3.398z"/><path id="D" d="M31.869 7.385l-1.151 3.398h-3.752l3.002 2.106-1.151 3.398 3.052-2.106 3.002 2.106-1.151-3.398 3.002-2.106h-3.702l-1.151-3.398z"/><path id="E" d="M73.844 7.385l-1.151 3.398h-3.702l3.002 2.106-1.151 3.398 3.002-2.106 3.002 2.106-1.151-3.398 3.052-2.106h-3.752l-1.151-3.398z"/><path id="F" d="M94.857 7.385l-1.151 3.398h-3.752l3.052 2.106-1.151 3.398 3.002-2.106 3.002 2.106-1.151-3.398 3.002-2.106h-3.702l-1.151-3.398z"/><path id="G" d="M63.337 15.999l-1.151 3.398h-3.702l3.002 2.106-1.151 3.398 3.002-2.106 3.052 2.106-1.151-3.398 3.002-2.106h-3.752l-1.151-3.398z"/><path id="H" d="M42.375 33.227l-1.151 3.398h-3.752l3.002 2.058-1.151 3.398 3.052-2.058 3.002 2.058-1.151-3.398 3.002-2.058h-3.702l-1.151-3.398z"/><path id="I" d="M63.337 33.227l-1.151 3.398h-3.702l3.002 2.058-1.151 3.398 3.002-2.058 3.052 2.058-1.151-3.398 3.002-2.058h-3.752l-1.151-3.398z"/><path id="J" d="M42.375 50.455l-1.151 3.398h-3.752l3.002 2.106-1.151 3.398 3.002-2.106 3.002 2.106-1.151-3.398 3.002-2.106h-3.752l-1.151-3.398h.1z"/><path id="K" d="M43.526 71.033l-1.151-3.398-1.151 3.398h-3.752l3.002 2.106-1.151 3.398 3.052-2.106 3.002 2.106-1.151-3.398 3.002-2.106h-3.702z"/></defs></svg>